<svg width="95" height="73" viewBox="0 0 95 73" fill="none" xmlns="http://www.w3.org/2000/svg">
<g clip-path="url(#clip0_6302_338)">
<path d="M93.721 24.9775C93.8326 25.3739 93.9371 25.7722 94.0345 26.1725H60.8673V24.9775H93.721Z" fill="#E6E6E6"/>
<path d="M92.6638 21.8273C92.1299 20.4555 91.5072 19.1136 90.7992 17.8086C90.5814 17.4063 90.3551 17.0079 90.1205 16.6136C90.082 16.546 90.0408 16.4783 89.9996 16.4106V25.3035H92.8657V22.3565L92.6638 21.8273Z" fill="#E6E6E6"/>
<path d="M90.7992 17.8087H89.9996V16.6138H90.1205C90.3556 17.0077 90.5818 17.406 90.7992 17.8087Z" fill="#CCCCCC"/>
<path d="M92.6638 21.8271H89.9996V23.0221H92.8657V22.3564L92.6638 21.8271Z" fill="#CCCCCC"/>
<path d="M88.4476 14.9844H85.5821V25.3035H88.4476V14.9844Z" fill="#E6E6E6"/>
<path d="M88.4476 16.6138H85.5821V17.8086H88.4476V16.6138Z" fill="#CCCCCC"/>
<path d="M88.4476 21.8276H85.5821V23.0225H88.4476V21.8276Z" fill="#CCCCCC"/>
<path d="M75.3797 14.9243H65.1C64.9416 14.9245 64.7897 14.9819 64.6777 15.0838C64.5657 15.1857 64.5026 15.3239 64.5024 15.468V24.82C64.5026 24.8732 64.5111 24.9261 64.5276 24.9771C64.5649 25.0889 64.6406 25.1868 64.7437 25.2564C64.8468 25.326 64.9717 25.3636 65.1 25.3638H75.3797C75.508 25.3636 75.633 25.326 75.736 25.2564C75.8391 25.1868 75.9148 25.0889 75.9521 24.9771C75.9687 24.9261 75.9772 24.8732 75.9773 24.82V15.468C75.9771 15.3239 75.914 15.1857 75.802 15.0838C75.69 14.9819 75.5381 14.9245 75.3797 14.9243Z" fill="#E6E6E6"/>
<path d="M74.6492 15.5889H65.8305C65.672 15.5891 65.5202 15.6464 65.4081 15.7484C65.2961 15.8503 65.2331 15.9885 65.2328 16.1326V24.1555C65.2331 24.2996 65.2961 24.4378 65.4081 24.5397C65.5202 24.6416 65.672 24.699 65.8305 24.6992H74.6492C74.8076 24.699 74.9595 24.6416 75.0715 24.5397C75.1836 24.4378 75.2466 24.2996 75.2468 24.1555V16.1326C75.2466 15.9885 75.1836 15.8503 75.0715 15.7484C74.9595 15.6464 74.8076 15.5891 74.6492 15.5889Z" fill="white"/>
<path d="M73.1113 16.9883H67.3685C67.21 16.9885 67.0582 17.0459 66.9461 17.1478C66.8341 17.2497 66.7711 17.3879 66.7708 17.532V22.7566C66.7711 22.9007 66.8341 23.0389 66.9461 23.1408C67.0582 23.2427 67.21 23.3001 67.3685 23.3003H73.1113C73.2695 23.2995 73.4211 23.242 73.533 23.1402C73.6449 23.0384 73.7081 22.9005 73.7089 22.7566V17.532C73.7087 17.3879 73.6457 17.2497 73.5336 17.1478C73.4216 17.0459 73.2697 16.9885 73.1113 16.9883Z" fill="#CCCCCC"/>
<path d="M72.7572 21.8349L71.5442 19.9235C71.5209 19.8868 71.4874 19.8563 71.447 19.835C71.4066 19.8138 71.3608 19.8027 71.3142 19.8027C71.2676 19.8027 71.2218 19.8138 71.1814 19.835C71.141 19.8563 71.1075 19.8868 71.0841 19.9235L70.1984 21.3192L69.0368 19.489C69.0135 19.4522 68.98 19.4217 68.9396 19.4005C68.8992 19.3793 68.8534 19.3682 68.8068 19.3682C68.7602 19.3682 68.7144 19.3793 68.674 19.4005C68.6336 19.4218 68.6001 19.4523 68.5768 19.489L67.3638 21.4004L65.9208 23.6742H68.7039L68.4282 24.1087H74.2003L72.7572 21.8349Z" fill="white"/>
<path d="M72.3291 18.8952C72.7906 18.8952 73.1648 18.5548 73.1648 18.1349C73.1648 17.7149 72.7906 17.3745 72.3291 17.3745C71.8675 17.3745 71.4933 17.7149 71.4933 18.1349C71.4933 18.5548 71.8675 18.8952 72.3291 18.8952Z" fill="white"/>
<path d="M94.9894 33.4207C94.9801 32.9519 94.9597 32.4855 94.9283 32.0215C94.915 31.7992 94.8991 31.578 94.8792 31.3569H89.2718C89.1134 31.3572 88.9615 31.4145 88.8495 31.5164C88.7375 31.6183 88.6744 31.7565 88.6742 31.9007V41.2527C88.6739 41.2954 88.6797 41.3381 88.6914 41.3795C88.7228 41.4981 88.7971 41.6037 88.9023 41.6793C89.0076 41.7549 89.1377 41.7961 89.2718 41.7964H94.4409C94.4675 41.6586 94.4927 41.5185 94.5152 41.3795C94.5298 41.2974 94.5445 41.214 94.5578 41.1318C94.5896 40.9349 94.6202 40.7379 94.6481 40.541C94.6879 40.2728 94.7238 40.0033 94.7556 39.7327C94.8725 38.7624 94.9478 37.7817 94.9815 36.7905V36.7893C94.9934 36.416 94.9996 36.041 95 35.6644V34.2145C95 33.9487 94.9974 33.6841 94.9894 33.4207Z" fill="#E6E6E6"/>
<path d="M94.9894 33.4207C94.9801 32.9519 94.9597 32.4855 94.9283 32.0215H90.0023C89.8439 32.0217 89.692 32.0791 89.5799 32.181C89.4679 32.2829 89.4049 32.4211 89.4046 32.5652V40.5881C89.4049 40.7322 89.4679 40.8704 89.5799 40.9723C89.692 41.0743 89.8439 41.1316 90.0023 41.1318H94.5578C94.5896 40.9349 94.6202 40.7379 94.6481 40.541C94.6879 40.2728 94.7238 40.0033 94.7556 39.7327C94.8725 38.7624 94.9478 37.7817 94.9814 36.7905V36.7893C94.9934 36.416 94.9996 36.041 95 35.6644V34.2145C95 33.9487 94.9974 33.6841 94.9894 33.4207Z" fill="white"/>
<path d="M94.9894 33.4209H91.5403C91.3818 33.4211 91.23 33.4785 91.1179 33.5804C91.0059 33.6823 90.9429 33.8205 90.9426 33.9646V39.1892C90.9429 39.3333 91.0059 39.4715 91.1179 39.5734C91.23 39.6753 91.3818 39.7327 91.5403 39.7329H94.7557C94.8725 38.7627 94.9478 37.7819 94.9815 36.7908V36.7895C94.9934 36.4162 94.9996 36.0412 95 35.6647V34.2147C95 33.9489 94.9974 33.6843 94.9894 33.4209Z" fill="#CCCCCC"/>
<path d="M94.9814 36.7905C94.9482 37.7813 94.873 38.762 94.7556 39.7326C94.7238 40.0033 94.6879 40.2727 94.6481 40.5409H92.6001L92.8764 40.1072H90.0926L90.9426 38.7672L91.5349 37.8332L92.7489 35.9217C92.772 35.8848 92.8054 35.8542 92.8458 35.8329C92.8861 35.8115 92.932 35.8003 92.9786 35.8003C93.0253 35.8003 93.0711 35.8115 93.1115 35.8329C93.1518 35.8542 93.1853 35.8848 93.2084 35.9217L94.3705 37.7523L94.9814 36.7905Z" fill="white"/>
<path d="M84.9183 9.77115H60.8673V8.57617H83.7256C84.132 8.96644 84.5296 9.36477 84.9183 9.77115Z" fill="#E6E6E6"/>
<path d="M73.6425 1.48389C74.6227 1.97444 75.578 2.50004 76.5086 3.06068V8.90145H73.6425V1.48389Z" fill="#E6E6E6"/>
<path d="M76.508 5.42578H73.6425V6.62063H76.508V5.42578Z" fill="#CCCCCC"/>
<path d="M80.9259 6.12965V8.90142H78.0598V4.04297C78.7279 4.48641 79.3809 4.94756 80.0188 5.42644C80.3242 5.65601 80.6266 5.89041 80.9259 6.12965Z" fill="#E6E6E6"/>
<path d="M80.9259 6.12948V6.62004H78.0598V5.42627H80.0188C80.3242 5.65584 80.6266 5.89025 80.9259 6.12948Z" fill="#CCCCCC"/>
<path d="M70.7166 0.152243C71.475 0.462761 72.2205 0.793827 72.9532 1.14544L72.3635 2.22805L70.4045 5.8299L69.8215 6.90043L68.9091 8.5763L68.7085 8.94482L67.8917 8.5763L66.1412 7.7873L67.2529 5.74291H67.2543L67.836 4.67238L69.7963 1.07053L70.3727 0.0120834L70.3793 0L70.7166 0.152243Z" fill="#E6E6E6"/>
<path d="M72.9466 1.15631L72.3635 2.22805L69.7963 1.07053L70.3727 0.0120827L70.3793 0L70.7167 0.152242L72.9466 1.15631Z" fill="#CCCCCC"/>
<path d="M67.836 4.67285L67.2533 5.74365L69.8213 6.90032L70.404 5.82952L67.836 4.67285Z" fill="#CCCCCC"/>
<path d="M94.5152 41.3794C94.4927 41.5183 94.4675 41.6585 94.4409 41.7962C94.3944 42.0572 94.3439 42.3158 94.2895 42.5744H60.8673V41.3794H94.5152Z" fill="#E6E6E6"/>
<path d="M76.508 31.3867H73.6425V41.7058H76.508V31.3867Z" fill="#E6E6E6"/>
<path d="M76.508 33.0161H73.6425V34.211H76.508V33.0161Z" fill="#CCCCCC"/>
<path d="M76.508 38.23H73.6425V39.4248H76.508V38.23Z" fill="#CCCCCC"/>
<path d="M80.9256 31.3867H78.0601V41.7058H80.9256V31.3867Z" fill="#E6E6E6"/>
<path d="M80.9256 33.0161H78.0601V34.211H80.9256V33.0161Z" fill="#CCCCCC"/>
<path d="M80.9256 38.23H78.0601V39.4248H80.9256V38.23Z" fill="#CCCCCC"/>
<path d="M71.1735 31.344L66.1408 40.5918L68.7088 41.7485L73.7415 32.5007L71.1735 31.344Z" fill="#E6E6E6"/>
<path d="M70.3788 32.8042L69.7961 33.875L72.3641 35.0317L72.9468 33.9609L70.3788 32.8042Z" fill="#CCCCCC"/>
<path d="M67.836 37.4766L67.2533 38.5474L69.8213 39.704L70.404 38.6332L67.836 37.4766Z" fill="#CCCCCC"/>
<path d="M38.8872 45.9847C39.0069 46.0474 39.1211 46.1186 39.2285 46.1976L51.0526 42.85L51.7194 40.1812L56.2782 40.5702L55.6025 45.3992C55.5479 45.7893 55.3557 46.1528 55.0547 46.4351C54.7537 46.7173 54.3602 46.9032 53.9333 46.9647L40.0181 48.969C39.8151 49.4166 39.4671 49.7974 39.0204 50.0607C38.5737 50.324 38.0495 50.4574 37.5174 50.443C36.9854 50.4287 36.4708 50.2673 36.042 49.9803C35.6132 49.6934 35.2906 49.2945 35.1171 48.8367C34.9437 48.3789 34.9275 47.8839 35.0708 47.4176C35.214 46.9512 35.51 46.5356 35.9192 46.226C36.3285 45.9163 36.8317 45.7274 37.3619 45.6843C37.892 45.6412 38.424 45.746 38.8872 45.9847Z" fill="#FFB8B8"/>
<path d="M58.385 42.1709L58.3067 40.953V40.9518L58.2854 40.6183L58.0544 37.0321C58.1235 36.2845 57.8642 35.5425 57.3333 34.9684C56.8023 34.3943 56.043 34.035 55.2215 33.9692C54.9851 33.9499 54.7472 33.9556 54.5123 33.9861C53.8145 34.0759 53.1704 34.3775 52.6847 34.842C52.1989 35.3065 51.8998 35.9067 51.836 36.5452L51.3566 38.36L50.5186 41.5342C50.4592 41.7562 50.4838 41.99 50.5884 42.1978C50.693 42.4057 50.8714 42.5754 51.095 42.6796C51.2241 42.7414 51.3654 42.7792 51.5107 42.7908L52.9079 42.9043L54.2533 43.0131L55.8058 43.1387L55.9174 43.1472L56.2043 43.1714L57.1645 43.2487H57.1671C57.3275 43.2605 57.4888 43.2411 57.6404 43.192C57.792 43.1428 57.9303 43.0649 58.0464 42.9635C58.1309 42.8886 58.2022 42.8022 58.2575 42.7074C58.3544 42.5429 58.3986 42.3571 58.385 42.1709Z" fill="#4B93E7"/>
<path d="M71.3602 27.4025C71.3602 31.5379 67.1571 30.9124 61.9724 30.9124C56.7876 30.9124 52.5845 31.5379 52.5845 27.4025C52.5845 23.2672 54.6376 15.937 61.9724 15.937C69.5598 15.937 71.3602 23.2672 71.3602 27.4025Z" fill="#082777"/>
<path d="M66.4079 29.2225C68.8748 26.9781 68.8748 23.3393 66.4079 21.0949C63.9409 18.8506 59.9411 18.8506 57.4741 21.0949C55.0071 23.3393 55.0071 26.9781 57.4741 29.2225C59.9411 31.4668 63.9409 31.4668 66.4079 29.2225Z" fill="#FFB8B8"/>
<path d="M70.8335 33.3218C70.7119 33.2152 70.5828 33.1159 70.4471 33.0246C69.5882 32.4343 68.5089 32.1744 67.4415 32.3008L55.8005 33.6408C54.7342 33.7612 53.7614 34.2547 53.0883 35.0166C52.4151 35.7786 52.0946 36.749 52.1947 37.7223C52.2279 38.0606 52.2651 38.4171 52.3062 38.788C52.3594 39.2532 52.4191 39.7413 52.4882 40.2464C52.6024 41.0958 52.7419 41.9923 52.9079 42.9046C53.0526 43.69 53.2173 44.4862 53.4059 45.2728C53.4604 45.4999 53.5171 45.7263 53.5759 45.9518C53.5758 45.9525 53.5759 45.9532 53.5761 45.9538C53.5764 45.9544 53.5767 45.955 53.5773 45.9555C53.5839 45.9833 53.5905 46.011 53.5985 46.0376C53.5981 46.0397 53.5986 46.0419 53.5998 46.0437C53.6822 46.3578 53.7685 46.6683 53.8588 46.9752C53.8933 47.0888 53.9265 47.2012 53.961 47.3124C54.054 47.6144 54.1523 47.9104 54.2533 48.2016C55.0116 50.3681 56.0143 52.2131 57.3385 53.1942C57.3557 53.2087 57.373 53.2208 57.3916 53.2341L57.4448 53.2715L57.5218 53.2498L57.8485 53.1616L58.1274 53.0843L61.7612 52.0898L62.6656 51.8422L65.5715 51.0459H65.5728L68.2304 50.3185L68.5545 50.2291L70.8375 49.6044L70.9106 48.8287L71.0089 47.7993L71.0673 47.1806L71.5295 42.3017L71.7991 39.455L72.0913 36.3642C72.1456 35.8038 72.0607 35.2394 71.843 34.7128C71.6253 34.1862 71.2803 33.7108 70.8335 33.3218Z" fill="#082777"/>
<path d="M77.3427 56.9298C77.3121 56.8488 77.2829 56.7679 77.2523 56.6881C75.8871 53.0633 73.8736 50.3218 70.9105 48.8283C70.9093 48.8283 70.9093 48.8271 70.9079 48.8271L70.8574 48.8018L68.2756 49.6149L67.9568 49.7152L67.6248 49.8203L67.6208 49.8215L65.2036 50.5827L65.1996 50.584L63.3031 51.1808H63.3017L61.5473 51.733H61.546L61.1382 51.8623L58.0716 52.8277L57.7156 52.9401L57.3969 53.0404L57.3477 53.0561L57.3385 53.1938L57.1193 56.6881L57.1048 56.9298L56.8312 61.2904L47.7455 72.9998H53.961C56.0437 73.0002 58.1234 72.856 60.182 72.5684L66.0137 66.8509C66.0626 66.8048 66.1244 66.7718 66.1924 66.7554C66.2604 66.739 66.332 66.7398 66.3995 66.7577C66.4671 66.7756 66.528 66.8099 66.5756 66.857C66.6233 66.9041 66.6559 66.9622 66.6699 67.0249L67.5265 70.8913C71.7467 69.5337 75.6946 67.5575 79.214 65.0409C78.8049 62.0384 78.2072 59.3016 77.3427 56.9298Z" fill="#082777"/>
<path d="M54.6422 24.595H57.1407L58.243 21.7871L58.4634 24.595H59.6576L60.3006 22.957L60.4292 24.595H69.3026C69.3026 23.796 69.1296 23.0049 68.7936 22.2668C68.4575 21.5287 67.9649 20.858 67.344 20.2931C66.723 19.7282 65.9858 19.2801 65.1745 18.9743C64.3631 18.6686 63.4936 18.5112 62.6154 18.5112H61.3294C59.5558 18.5112 57.8549 19.1522 56.6008 20.2931C55.3467 21.434 54.6422 22.9815 54.6422 24.595Z" fill="#082777"/>
<path d="M39.2738 55.0436C38.8659 55.1995 38.4254 55.2722 37.9832 55.2564C37.5411 55.2407 37.1082 55.137 36.7149 54.9526C36.3216 54.7682 35.9775 54.5075 35.7069 54.1891C35.4364 53.8706 35.2458 53.502 35.1487 53.1093L24.4619 52.0082L28.0443 48.1055L37.6434 49.7494C38.3794 49.6448 39.132 49.7894 39.7587 50.1558C40.3853 50.5223 40.8424 51.0851 41.0434 51.7377C41.2443 52.3903 41.1752 53.0873 40.849 53.6965C40.5229 54.3058 39.9624 54.7851 39.2738 55.0436Z" fill="#A0616A"/>
<path d="M33.512 47.8197L28.995 47.085L28.667 47.0319C28.4049 46.9893 28.1556 46.8967 27.9356 46.7602C27.7156 46.6238 27.5298 46.4465 27.3904 46.24C27.2511 46.0336 27.1613 45.8027 27.127 45.5624C27.0927 45.3222 27.1147 45.0781 27.1915 44.8461L29.4094 38.1414L29.4758 37.9421C29.7527 37.0899 29.7034 36.1774 29.336 35.354C28.9685 34.5307 28.3046 33.8452 27.4531 33.4098C26.8767 33.1186 26.2342 32.9523 25.5756 32.9238C24.9171 32.8953 24.2601 33.0054 23.6559 33.2455C23.0518 33.4857 22.5166 33.8493 22.0921 34.3083C21.6675 34.7672 21.3651 35.309 21.2083 35.8916L18.3794 46.3951L18.2745 46.7842C18.0769 47.5171 18.0553 48.2801 18.2113 49.0213C18.3673 49.7624 18.6971 50.4643 19.1782 51.079C19.6594 51.6937 20.2806 52.2067 20.9994 52.5832C21.7183 52.9597 22.518 53.1907 23.3439 53.2605C23.3532 53.2617 23.3611 53.2617 23.3705 53.2629L25.0638 53.3995L27.2605 53.5771L30.023 53.8006L32.6009 54.0096C32.9386 54.0375 33.2754 53.9488 33.5446 53.7613C33.8137 53.5737 33.9955 53.3009 34.0539 52.9971C34.0579 52.9802 34.0605 52.9633 34.0632 52.9464L34.6104 49.2297L34.6157 49.1959C34.6629 48.8812 34.5743 48.5621 34.3685 48.3055C34.1628 48.049 33.8558 47.8748 33.512 47.8197Z" fill="#CCCCCC"/>
<path d="M26.5528 19.6585C24.7497 22.8837 23.3286 26.2103 19.3512 26.2103C17.4412 26.2103 15.6095 25.52 14.2589 24.2913C12.9083 23.0626 12.1496 21.3961 12.1496 19.6585C12.1496 16.0401 15.3742 13.1521 19.3512 13.1068C23.3933 13.0607 29.909 13.6554 26.5528 19.6585Z" fill="#082777"/>
<path d="M31.0762 61.8514L30.9128 60.3677L30.7906 60.3737L9.31622 61.315L9.37199 62.8168L9.46635 65.3892C12.7892 67.692 16.4792 69.5194 20.4087 70.8083L20.5482 69.8248C20.5604 69.7447 20.6026 69.6708 20.6678 69.6157C20.733 69.5607 20.8171 69.5278 20.9058 69.5227C20.9946 69.5176 21.0826 69.5405 21.1549 69.5877C21.2271 69.6348 21.2793 69.7032 21.3025 69.7813L21.7262 71.2179C25.1492 72.2222 28.7039 72.8077 32.2967 72.959L31.0762 61.8514Z" fill="#082777"/>
<path d="M24.1725 24.6546C26.6395 22.4102 26.6395 18.7714 24.1725 16.527C21.7055 14.2827 17.7057 14.2827 15.2388 16.527C12.7718 18.7714 12.7718 22.4102 15.2388 24.6546C17.7057 26.899 21.7055 26.899 24.1725 24.6546Z" fill="#A0616A"/>
<path d="M32.3101 60.4677L31.0576 56.9299L31.0364 56.8695L30.9726 56.6882L30.6154 55.6805C30.4998 55.3531 30.3895 55.0245 30.2873 54.6946C30.193 54.3974 30.1049 54.0993 30.023 53.8005C29.9062 53.3848 29.7999 52.9676 29.7043 52.5487C29.3802 51.1411 29.164 49.7148 29.0575 48.2799C29.0282 47.8824 29.0074 47.4841 28.995 47.0849C28.9172 44.6385 29.1593 42.1923 29.7162 39.7979C30.201 37.7273 29.9421 35.5698 28.9775 33.6431C28.013 31.7165 26.3938 30.1226 24.3586 29.0962C23.0231 28.4247 21.5449 28.0214 20.0236 27.9133C19.9187 27.9061 19.8137 27.9 19.7075 27.894C18.1005 27.8016 16.4912 28.0388 14.9984 28.5879C13.5056 29.1371 12.1674 29.9843 11.0827 31.0669C10.5017 31.6427 9.99706 32.2785 9.5792 32.9615C8.41982 34.8618 7.98458 37.0579 8.34142 39.207L9.83419 48.3258L9.49425 52.1645L9.09316 56.6882L9.07189 56.9299L8.64421 61.7533C8.62395 61.9782 8.68379 62.2029 8.81486 62.3944C8.94594 62.5859 9.14129 62.734 9.37201 62.8166C9.50715 62.8658 9.65147 62.8909 9.79704 62.8903C9.81831 62.8903 9.83822 62.8903 9.85949 62.8891L31.0762 61.8512L31.2701 61.8415C31.4471 61.8332 31.6196 61.7879 31.7743 61.7092C31.929 61.6305 32.0617 61.5205 32.1622 61.3877C32.2627 61.255 32.3283 61.1029 32.354 60.9434C32.3796 60.7839 32.3646 60.6211 32.3101 60.4677Z" fill="#CCCCCC"/>
<path d="M26.4091 17.3431C24.9655 18.2483 23.2522 18.73 21.499 18.7237C22.1243 19.1182 22.8363 19.3846 23.5858 19.5047C21.2548 19.9596 18.8457 19.9719 16.5092 19.5409C15.9898 19.4651 15.4887 19.3085 15.0277 19.078C14.5791 18.8302 14.2038 18.4357 14.1133 17.9654C13.9581 17.1585 14.6492 16.4254 15.3675 15.9313C16.4671 15.1864 17.7351 14.6732 19.0795 14.4288C20.424 14.1844 21.8113 14.2149 23.1412 14.5181C24.0096 14.7223 24.8795 15.0674 25.4436 15.7018C26.0076 16.3362 26.1747 17.3143 25.6373 17.9676L26.4091 17.3431Z" fill="#082777"/>
<path d="M26.7321 53.8481C26.3279 54.012 25.8893 54.0933 25.4469 54.0863C25.0045 54.0793 24.5692 53.9841 24.1716 53.8075C23.774 53.6309 23.4238 53.3771 23.1457 53.0641C22.8676 52.751 22.6683 52.3863 22.5619 51.9955L11.8514 51.1052L15.34 47.1328L24.9761 48.5873C25.7094 48.4682 26.4653 48.5979 27.1005 48.9519C27.7357 49.306 28.2061 49.8597 28.4225 50.5081C28.639 51.1566 28.5865 51.8548 28.2749 52.4704C27.9633 53.0859 27.4144 53.5761 26.7321 53.8481Z" fill="#A0616A"/>
<path d="M20.8005 46.7395L18.3794 46.3951L15.9369 46.0472C15.6739 46.0098 15.4225 45.9222 15.1993 45.7901C14.9761 45.6581 14.7862 45.4846 14.6419 45.281C14.4977 45.0774 14.4024 44.8484 14.3624 44.6089C14.3223 44.3695 14.3384 44.125 14.4096 43.8916L16.5293 36.9441C16.7858 36.0866 16.7147 35.1754 16.3277 34.3595C15.9407 33.5436 15.2607 32.8714 14.399 32.4529C13.8168 32.1704 13.1704 32.0151 12.5109 31.9994C11.8513 31.9836 11.1968 32.1079 10.5992 32.3623C9.99981 32.6127 9.47248 32.9863 9.05878 33.4536C8.64508 33.921 8.35631 34.4694 8.21522 35.0555L5.54173 46.0037C5.36163 46.7422 5.35902 47.5074 5.53409 48.2469C5.70916 48.9864 6.05777 49.6827 6.55607 50.2883C7.05436 50.8939 7.69059 51.3944 8.42119 51.7556C9.1518 52.1167 9.95955 52.33 10.7892 52.3809L20.0369 52.9452C20.375 52.9662 20.7095 52.8709 20.9741 52.6783C21.2388 52.4856 21.4143 52.2096 21.4659 51.9049C21.4699 51.8879 21.4712 51.871 21.4739 51.8541L21.9321 48.1278L21.936 48.094C21.9755 47.7785 21.8794 47.4614 21.6678 47.2089C21.4561 46.9565 21.1454 46.7883 20.8005 46.7395Z" fill="#CCCCCC"/>
<path d="M61.77 40.964L61.2158 41.2391L54.3877 44.6285L53.8335 44.9036C53.5645 45.0374 53.365 45.2629 53.2785 45.5304C53.192 45.798 53.2258 46.0858 53.3723 46.3308L58.457 54.8089C58.6041 55.0536 58.8519 55.2351 59.146 55.3138C59.4401 55.3925 59.7565 55.3618 60.0258 55.2285L60.0272 55.2278L67.9609 51.2896L67.9623 51.2889C68.2312 51.1551 68.4308 50.9296 68.5172 50.6621C68.6037 50.3945 68.57 50.1067 68.4235 49.8617L63.3387 41.3836C63.1916 41.1389 62.9438 40.9573 62.6497 40.8787C62.3556 40.8 62.0393 40.8307 61.77 40.964Z" fill="#E6E6E6"/>
<path d="M61.9295 41.2299L61.273 41.5557L54.6493 44.8436L53.9929 45.1694C53.8014 45.2648 53.6593 45.4253 53.5977 45.6158C53.5361 45.8064 53.5602 46.0113 53.6645 46.1858L58.7492 54.6639C58.854 54.8382 59.0304 54.9675 59.2399 55.0235C59.4493 55.0795 59.6746 55.0576 59.8664 54.9627L59.8678 54.962L67.8015 51.0238L67.8029 51.0231C67.9944 50.9278 68.1365 50.7673 68.1981 50.5767C68.2597 50.3862 68.2356 50.1813 68.1313 50.0068L63.0466 41.5287C62.9418 41.3544 62.7654 41.2251 62.5559 41.1691C62.3465 41.1131 62.1212 41.135 61.9295 41.2299Z" fill="white"/>
<path d="M62.1158 43.6234C62.0911 43.5827 62.0498 43.5525 62.0008 43.5394C61.9518 43.5263 61.8991 43.5313 61.8541 43.5533L61.5898 43.685L58.8951 45.0226C58.8505 45.045 58.8174 45.0826 58.8032 45.1271C58.7889 45.1716 58.7946 45.2194 58.819 45.2601C58.8434 45.3008 58.8845 45.3311 58.9333 45.3443C58.9821 45.3575 59.0347 45.3526 59.0796 45.3307L62.0387 43.8614C62.0834 43.839 62.1166 43.8014 62.131 43.7568C62.1454 43.7123 62.14 43.6643 62.1158 43.6234Z" fill="#E6E6E6"/>
<path d="M63.1238 43.7963C63.1118 43.7762 63.0955 43.7584 63.0758 43.744C63.0562 43.7296 63.0336 43.7189 63.0094 43.7125C62.9852 43.7061 62.9599 43.7041 62.9348 43.7067C62.9097 43.7092 62.8855 43.7163 62.8635 43.7275L59.2071 45.5423C59.185 45.5533 59.1654 45.5682 59.1496 45.5861C59.1338 45.604 59.122 45.6246 59.1149 45.6466C59.1078 45.6687 59.1055 45.6918 59.1083 45.7146C59.111 45.7374 59.1186 45.7596 59.1308 45.7797C59.1429 45.7999 59.1592 45.8176 59.1789 45.832C59.1986 45.8464 59.2212 45.8572 59.2454 45.8636C59.2697 45.8701 59.2951 45.8721 59.3202 45.8696C59.3453 45.8672 59.3696 45.8602 59.3917 45.8492L59.5618 45.7646L60.6256 45.2366H60.6269L63.0467 44.0344C63.0691 44.0235 63.0889 44.0087 63.105 43.9907C63.121 43.9728 63.133 43.9522 63.1401 43.93C63.1473 43.9079 63.1496 43.8846 63.1467 43.8617C63.1439 43.8387 63.1361 43.8165 63.1238 43.7963Z" fill="#E6E6E6"/>
<path d="M59.1501 46.689L57.9892 44.7521C57.9772 44.7327 57.9572 44.7183 57.9335 44.7122C57.9099 44.7061 57.8846 44.7087 57.8631 44.7195L57.3 44.9986L57.0078 45.1436L55.4393 45.9217L55.1351 46.0728C55.1138 46.0837 55.098 46.102 55.0913 46.1234C55.0846 46.1449 55.0875 46.168 55.0993 46.1875L55.1737 46.312L56.26 48.1244C56.2719 48.1437 56.2916 48.158 56.315 48.1642C56.3384 48.1703 56.3635 48.1677 56.3849 48.157L58.2575 47.2279L58.5497 47.0829L59.1128 46.8038C59.1236 46.7985 59.1331 46.7913 59.1408 46.7827C59.1485 46.774 59.1543 46.7641 59.1578 46.7534C59.1612 46.7428 59.1623 46.7316 59.161 46.7205C59.1597 46.7094 59.156 46.6987 59.1501 46.689Z" fill="#E6E6E6"/>
<path d="M63.5833 46.0809C63.5589 46.0403 63.5179 46.0101 63.4691 45.9969C63.4203 45.9838 63.3677 45.9888 63.323 46.0108L59.3094 48.0033C59.274 48.0209 59.2455 48.0483 59.2281 48.0815C59.2107 48.1147 59.2052 48.152 59.2124 48.1881C59.2153 48.2069 59.222 48.2249 59.2324 48.2413C59.2425 48.258 59.2555 48.2731 59.2709 48.286L59.2722 48.2872C59.302 48.3115 59.3392 48.3269 59.3789 48.3312C59.4186 48.3355 59.4588 48.3286 59.494 48.3114L63.5076 46.319C63.5298 46.3079 63.5494 46.2929 63.5652 46.275C63.581 46.257 63.5928 46.2364 63.5998 46.2142C63.6068 46.1921 63.609 46.169 63.6062 46.1461C63.6033 46.1232 63.5956 46.1011 63.5833 46.0809Z" fill="#E6E6E6"/>
<path d="M64.5927 46.2537C64.5805 46.2336 64.564 46.2158 64.5443 46.2014C64.5245 46.1871 64.5018 46.1764 64.4775 46.17C64.4532 46.1636 64.4278 46.1616 64.4026 46.1642C64.3775 46.1667 64.3532 46.1738 64.331 46.1849L59.6202 48.5229C59.5848 48.5399 59.5562 48.5668 59.5388 48.5996C59.5214 48.6324 59.5159 48.6695 59.5233 48.7053V48.7065C59.5261 48.7253 59.5328 48.7433 59.5432 48.7597C59.5534 48.777 59.5669 48.7925 59.583 48.8056C59.6124 48.8304 59.6497 48.8462 59.6896 48.8505C59.7294 48.8548 59.7697 48.8476 59.8048 48.8298L64.5157 46.4918C64.5604 46.4694 64.5937 46.4318 64.6081 46.3872C64.6226 46.3426 64.617 46.2946 64.5927 46.2537Z" fill="#E6E6E6"/>
<path d="M57.9651 49.9428C58.4162 49.9428 58.782 49.6101 58.782 49.1997C58.782 48.7893 58.4162 48.4565 57.9651 48.4565C57.514 48.4565 57.1483 48.7893 57.1483 49.1997C57.1483 49.6101 57.514 49.9428 57.9651 49.9428Z" fill="#E6E6E6"/>
<path d="M64.1606 37.7018L63.6064 37.9769L56.7783 41.3663L56.2241 41.6414C55.9552 41.7752 55.7556 42.0007 55.6691 42.2682C55.5827 42.5358 55.6164 42.8236 55.7629 43.0685L60.8476 51.5467C60.9948 51.7914 61.2426 51.9729 61.5367 52.0516C61.8307 52.1302 62.1471 52.0996 62.4164 51.9663L62.4178 51.9655L70.3515 48.0274L70.3529 48.0267C70.6218 47.8929 70.8214 47.6674 70.9079 47.3999C70.9943 47.1323 70.9606 46.8445 70.8141 46.5995L65.7294 38.1214C65.5822 37.8767 65.3345 37.6951 65.0404 37.6165C64.7463 37.5378 64.4299 37.5685 64.1606 37.7018Z" fill="#CCCCCC"/>
<path d="M64.3201 37.9672L63.6636 38.293L57.04 41.5809L56.3835 41.9068C56.192 42.0021 56.0499 42.1626 55.9883 42.3531C55.9268 42.5437 55.9508 42.7486 56.0551 42.9231L61.1398 51.4012C61.2446 51.5755 61.4211 51.7048 61.6305 51.7608C61.8399 51.8168 62.0652 51.7949 62.257 51.7L62.2584 51.6993L70.1921 47.7612L70.1935 47.7604C70.385 47.6651 70.5271 47.5046 70.5887 47.3141C70.6503 47.1235 70.6263 46.9186 70.5219 46.7441L65.4372 38.266C65.3324 38.0917 65.156 37.9624 64.9465 37.9064C64.7371 37.8504 64.5118 37.8723 64.3201 37.9672Z" fill="white"/>
<path d="M64.5064 40.3612C64.4817 40.3205 64.4404 40.2903 64.3914 40.2772C64.3424 40.2641 64.2897 40.2691 64.2447 40.2911L62.8821 40.9677L62.5022 41.1562L61.2857 41.7604C61.2411 41.7828 61.2081 41.8204 61.1938 41.8649C61.1795 41.9094 61.1852 41.9572 61.2096 41.9979C61.234 42.0386 61.2751 42.0689 61.3239 42.0821C61.3728 42.0953 61.4254 42.0904 61.4702 42.0685L62.9047 41.3568L63.2048 41.207L64.4293 40.5992C64.4741 40.5768 64.5072 40.5392 64.5216 40.4946C64.5361 40.4501 64.5306 40.4021 64.5064 40.3612Z" fill="#CCCCCC"/>
<path d="M65.5144 40.5336C65.5024 40.5135 65.4861 40.4957 65.4665 40.4813C65.4468 40.4669 65.4243 40.4562 65.4 40.4498C65.3758 40.4434 65.3505 40.4414 65.3254 40.444C65.3004 40.4465 65.2761 40.4536 65.2541 40.4648L63.3535 41.4084L63.0613 41.5534L61.5977 42.2796C61.5756 42.2906 61.556 42.3055 61.5402 42.3234C61.5244 42.3413 61.5126 42.3619 61.5055 42.3839C61.4984 42.406 61.4962 42.4291 61.4989 42.4519C61.5016 42.4747 61.5093 42.4969 61.5214 42.517C61.5335 42.5372 61.5499 42.5549 61.5695 42.5693C61.5892 42.5837 61.6118 42.5945 61.6361 42.6009C61.6603 42.6074 61.6857 42.6094 61.7108 42.6069C61.7359 42.6045 61.7602 42.5975 61.7824 42.5865L63.246 41.8603L63.5382 41.7153L65.4374 40.7717C65.4598 40.7608 65.4796 40.746 65.4956 40.7281C65.5116 40.7101 65.5236 40.6895 65.5307 40.6673C65.5379 40.6452 65.5402 40.622 65.5374 40.599C65.5346 40.576 65.5268 40.5538 65.5144 40.5336Z" fill="#CCCCCC"/>
<path d="M61.5407 43.4263L60.6149 41.8821L60.4556 41.6163L60.3798 41.4894C60.3678 41.47 60.3478 41.4556 60.3241 41.4495C60.3005 41.4434 60.2752 41.446 60.2537 41.4568L58.3744 42.3896L57.5257 42.8101C57.5044 42.821 57.4886 42.8393 57.4819 42.8608C57.4752 42.8822 57.478 42.9053 57.4899 42.9249L57.5656 43.0505L57.6479 43.1895L57.725 43.3163V43.3175L58.6506 44.8617C58.6625 44.8811 58.6823 44.8954 58.7056 44.9015C58.729 44.9076 58.7541 44.905 58.7755 44.8943L61.5034 43.5411C61.5142 43.5358 61.5237 43.5286 61.5314 43.52C61.5392 43.5114 61.5449 43.5014 61.5484 43.4907C61.5518 43.4801 61.5529 43.4689 61.5516 43.4578C61.5503 43.4467 61.5466 43.436 61.5407 43.4263Z" fill="#4B93E7"/>
<path d="M65.9739 42.8187C65.9496 42.7781 65.9085 42.7479 65.8597 42.7347C65.8109 42.7216 65.7584 42.7266 65.7136 42.7486L64.5143 43.3443L64.2221 43.4893L63.064 44.0632L61.7 44.7411C61.6778 44.7521 61.6581 44.767 61.6422 44.7849C61.6263 44.8029 61.6145 44.8235 61.6073 44.8456C61.6002 44.8677 61.5979 44.8908 61.6005 44.9138C61.6032 44.9367 61.6109 44.9589 61.623 44.9791C61.6351 44.9993 61.6515 45.0172 61.6712 45.0317C61.6909 45.0461 61.7136 45.0569 61.7379 45.0634C61.7622 45.0699 61.7876 45.072 61.8128 45.0696C61.838 45.0671 61.8624 45.0602 61.8846 45.0492L64.4068 43.7974L64.6989 43.6524L65.8982 43.0567C65.9204 43.0457 65.94 43.0307 65.9558 43.0128C65.9716 42.9948 65.9834 42.9741 65.9904 42.952C65.9975 42.9299 65.9996 42.9068 65.9968 42.8839C65.994 42.861 65.9862 42.8389 65.9739 42.8187Z" fill="#CCCCCC"/>
<path d="M66.9833 42.9915C66.9711 42.9714 66.9546 42.9536 66.9349 42.9392C66.9151 42.9249 66.8925 42.9142 66.8682 42.9078C66.8439 42.9014 66.8184 42.8994 66.7933 42.902C66.7681 42.9045 66.7438 42.9116 66.7216 42.9227L64.8264 43.8639L64.5343 44.0089L62.0108 45.2607C61.9886 45.2716 61.9689 45.2865 61.9529 45.3044C61.937 45.3223 61.9251 45.3429 61.9179 45.365C61.9108 45.3871 61.9085 45.4102 61.9112 45.4332C61.9139 45.4561 61.9215 45.4783 61.9337 45.4985C61.9458 45.5187 61.9622 45.5365 61.982 45.5509C62.0017 45.5653 62.0244 45.5761 62.0487 45.5825C62.0731 45.5889 62.0985 45.5909 62.1237 45.5883C62.1489 45.5858 62.1732 45.5787 62.1954 45.5676L64.7175 44.3158L65.0097 44.1708L66.9063 43.2296C66.9511 43.2072 66.9843 43.1696 66.9987 43.125C67.0132 43.0804 67.0076 43.0324 66.9833 42.9915Z" fill="#CCCCCC"/>
<path d="M60.3557 46.6806C60.8068 46.6806 61.1725 46.3479 61.1725 45.9375C61.1725 45.527 60.8068 45.1943 60.3557 45.1943C59.9046 45.1943 59.5388 45.527 59.5388 45.9375C59.5388 46.3479 59.9046 46.6806 60.3557 46.6806Z" fill="#CCCCCC"/>
<path d="M60.9044 50.115C61.0419 50.1273 61.1782 50.1495 61.3118 50.1813L70.5755 42.705L69.9765 40.0229L74.3076 38.6714L75.8753 43.3258C76.0019 43.7018 75.9911 44.105 75.8444 44.4749C75.6977 44.8449 75.423 45.1615 75.0617 45.3774L63.2847 52.4118C63.302 52.8958 63.157 53.3731 62.8689 53.7803C62.5808 54.1875 62.1633 54.5052 61.6719 54.6912C61.1804 54.8772 60.6384 54.9228 60.1178 54.8217C59.5973 54.7206 59.1229 54.4778 58.7578 54.1254C58.3926 53.7731 58.1541 53.328 58.0738 52.8493C57.9935 52.3706 58.0753 51.881 58.3084 51.4456C58.5414 51.0102 58.9146 50.6497 59.3784 50.412C59.8421 50.1744 60.3744 50.0707 60.9044 50.115Z" fill="#FFB8B8"/>
<path d="M76.9522 39.3414L74.3278 34.7814C74.0577 34.0879 73.5019 33.5169 72.7779 33.1891C72.0538 32.8613 71.218 32.8023 70.447 33.0246C70.4178 33.0318 70.3899 33.0403 70.3607 33.05C69.5794 33.2984 68.9384 33.8188 68.5783 34.4968C68.2183 35.1748 68.1686 35.955 68.4402 36.6663L69.4934 41.706C69.5236 41.8503 69.5876 41.9869 69.6811 42.1066C69.7747 42.2263 69.8955 42.3262 70.0353 42.3995C70.1882 42.4809 70.3604 42.5273 70.5373 42.5349C70.6829 42.5433 70.8288 42.5248 70.9663 42.4805L71.5295 42.3017L75.1446 41.1562L76.3266 40.7817C76.4791 40.7332 76.6183 40.6554 76.7347 40.5536C76.8512 40.4518 76.9421 40.3283 77.0015 40.1917C77.0608 40.0551 77.0872 39.9084 77.0786 39.7617C77.0701 39.6149 77.027 39.4716 76.9522 39.3414Z" fill="#4B93E7"/>
<path d="M86.8592 56.9301H0.132812C0.0975882 56.9301 0.0638068 56.9174 0.0388997 56.8947C0.0139926 56.8721 0 56.8413 0 56.8093C0 56.7773 0.0139926 56.7465 0.0388997 56.7239C0.0638068 56.7012 0.0975882 56.6885 0.132812 56.6885H86.8592C86.8944 56.6885 86.9282 56.7012 86.9531 56.7239C86.978 56.7465 86.992 56.7773 86.992 56.8093C86.992 56.8413 86.978 56.8721 86.9531 56.8947C86.9282 56.9174 86.8944 56.9301 86.8592 56.9301Z" fill="#3F3D56"/>
<path d="M15.0737 54.6948V54.7552C15.0741 55.1649 15.2053 55.5656 15.4512 55.9087C15.697 56.2519 16.0471 56.5228 16.4589 56.6885C16.7543 56.8086 17.0743 56.8704 17.3979 56.8697H38.8471V54.6948H15.0737Z" fill="#3F3D56"/>
<path d="M53.8229 40.3612C53.4825 39.722 52.9585 39.1784 52.3062 38.788C52.0106 38.6099 51.6915 38.4662 51.3566 38.3603C50.9002 38.2153 50.4203 38.1414 49.9369 38.1416H29.351C28.2066 38.1428 27.1095 38.5569 26.3003 39.2931C25.4911 40.0293 25.0359 41.0274 25.0346 42.0685V52.9429C25.0342 53.0955 25.044 53.2481 25.0638 53.3996C25.093 53.6263 25.1436 53.8503 25.2152 54.069C25.2862 54.2845 25.3777 54.4939 25.4888 54.6949C25.8463 55.3485 26.3972 55.8983 27.0796 56.2825C27.7619 56.6668 28.5485 56.8701 29.351 56.8698H49.9369C50.5038 56.87 51.0651 56.7685 51.5889 56.5713C52.1127 56.374 52.5886 56.0847 52.9895 55.7201C53.3904 55.3554 53.7083 54.9224 53.9251 54.4459C54.142 53.9694 54.2535 53.4586 54.2533 52.9429V42.0685C54.2542 41.477 54.1071 40.8932 53.8229 40.3612Z" fill="#3F3D56"/>
<path d="M40.7728 48.4723C41.3596 48.4723 41.8353 48.0395 41.8353 47.5057C41.8353 46.9718 41.3596 46.5391 40.7728 46.5391C40.186 46.5391 39.7103 46.9718 39.7103 47.5057C39.7103 48.0395 40.186 48.4723 40.7728 48.4723Z" fill="white"/>
</g>
<defs>
<clipPath id="clip0_6302_338">
<rect width="95" height="73" fill="white"/>
</clipPath>
</defs>
</svg>
