<svg width="96" height="73" viewBox="0 0 96 73" fill="none" xmlns="http://www.w3.org/2000/svg">
<g clip-path="url(#clip0_6302_500)">
<path d="M21.5512 7.31249H15.4928C14.9104 7.31306 14.352 7.56563 13.9401 8.01474C13.5283 8.46385 13.2966 9.07281 13.2961 9.70796V16.8704C13.2187 16.8654 13.1412 16.8578 13.0649 16.8477C11.6296 16.6831 10.2651 16.0844 9.12509 15.1193C7.98511 14.1542 7.11505 12.8611 6.61299 11.3856C6.11093 9.91014 5.99685 8.31107 6.2836 6.76869C6.57035 5.2263 7.24653 3.80194 8.2359 2.6562C9.22528 1.51046 10.4885 0.688897 11.8832 0.284146C13.2778 -0.120606 14.7484 -0.0924509 16.1292 0.365437C17.5099 0.823326 18.7459 1.69274 19.6978 2.87565C20.6497 4.05856 21.2796 5.50792 21.5165 7.06033C21.5292 7.14354 21.5408 7.22802 21.5512 7.31249Z" fill="#F2F2F2"/>
<path d="M93.0721 7.06055H15.4928C14.8491 7.06131 14.232 7.34051 13.7768 7.83687C13.3216 8.33323 13.0656 9.00621 13.0649 9.70817V54.3396C13.0656 55.0415 13.3216 55.7145 13.7768 56.2109C14.232 56.7072 14.8491 56.9864 15.4928 56.9872H93.0721C93.7158 56.9864 94.3329 56.7072 94.7881 56.2109C95.2433 55.7145 95.4993 55.0415 95.5 54.3396V9.70817C95.4993 9.00621 95.2433 8.33323 94.7881 7.83687C94.3329 7.34051 93.7158 7.06131 93.0721 7.06055ZM95.2688 54.3396C95.2683 54.9747 95.0367 55.5837 94.6248 56.0328C94.2129 56.4819 93.6545 56.7345 93.0721 56.735H15.4928C14.9104 56.7345 14.352 56.4819 13.9401 56.0328C13.5283 55.5837 13.2966 54.9747 13.2961 54.3396V9.70817C13.2966 9.07303 13.5283 8.46407 13.9401 8.01495C14.352 7.56584 14.9104 7.31328 15.4928 7.3127H93.0721C93.6545 7.31328 94.2129 7.56584 94.6248 8.01495C95.0367 8.46407 95.2683 9.07303 95.2688 9.70817V54.3396Z" fill="#3F3D56"/>
<path d="M89.2567 14.2932H19.3082C19.2775 14.2932 19.2481 14.2799 19.2264 14.2562C19.2047 14.2326 19.1926 14.2005 19.1926 14.1671C19.1926 14.1337 19.2047 14.1016 19.2264 14.0779C19.2481 14.0543 19.2775 14.041 19.3082 14.041H89.2567C89.2873 14.041 89.3167 14.0543 89.3384 14.0779C89.3601 14.1016 89.3723 14.1337 89.3723 14.1671C89.3723 14.2005 89.3601 14.2326 89.3384 14.2562C89.3167 14.2799 89.2873 14.2932 89.2567 14.2932Z" fill="#3F3D56"/>
<path d="M39.0788 51.5656C39.0481 51.5656 39.0187 51.5523 38.997 51.5287C38.9753 51.505 38.9631 51.473 38.9631 51.4395V9.96006C38.9631 9.92662 38.9753 9.89456 38.997 9.87091C39.0187 9.84727 39.0481 9.83398 39.0788 9.83398C39.1094 9.83398 39.1388 9.84727 39.1605 9.87091C39.1822 9.89456 39.1944 9.92662 39.1944 9.96006V51.4395C39.1944 51.473 39.1822 51.505 39.1605 51.5287C39.1388 51.5523 39.1094 51.5656 39.0788 51.5656Z" fill="#3F3D56"/>
<path d="M56.5369 51.5656C56.5063 51.5656 56.4769 51.5523 56.4552 51.5287C56.4335 51.505 56.4213 51.473 56.4213 51.4395V9.96006C56.4213 9.92662 56.4335 9.89456 56.4552 9.87091C56.4769 9.84727 56.5063 9.83398 56.5369 9.83398C56.5676 9.83398 56.597 9.84727 56.6187 9.87091C56.6404 9.89456 56.6526 9.92662 56.6526 9.96006V51.4395C56.6526 51.473 56.6404 51.505 56.6187 51.5287C56.597 51.5523 56.5676 51.5656 56.5369 51.5656Z" fill="#3F3D56"/>
<path d="M73.9952 51.5656C73.9645 51.5656 73.9351 51.5523 73.9134 51.5287C73.8918 51.505 73.8796 51.473 73.8796 51.4395V9.96006C73.8796 9.92662 73.8918 9.89456 73.9134 9.87091C73.9351 9.84727 73.9645 9.83398 73.9952 9.83398C74.0259 9.83398 74.0553 9.84727 74.0769 9.87091C74.0986 9.89456 74.1108 9.92662 74.1108 9.96006V51.4395C74.1108 51.473 74.0986 51.505 74.0769 51.5287C74.0553 51.5523 74.0259 51.5656 73.9952 51.5656Z" fill="#3F3D56"/>
<path d="M27.8541 27.3069H23.6295C23.4915 27.3068 23.3593 27.2469 23.2617 27.1406C23.1642 27.0342 23.1093 26.89 23.1092 26.7396V21.3032C23.1093 21.1528 23.1642 21.0086 23.2617 20.9022C23.3593 20.7958 23.4915 20.736 23.6295 20.7358H27.8541C27.9921 20.736 28.1243 20.7958 28.2218 20.9022C28.3194 21.0086 28.3743 21.1528 28.3744 21.3032V26.7396C28.3743 26.89 28.3194 27.0342 28.2218 27.1406C28.1243 27.2469 27.9921 27.3068 27.8541 27.3069Z" fill="#4B93E7"/>
<path d="M33.8662 42.8143H29.6416C29.5036 42.8141 29.3714 42.7543 29.2738 42.6479C29.1763 42.5415 29.1214 42.3973 29.1213 42.2469V36.8105C29.1214 36.6601 29.1763 36.5159 29.2738 36.4095C29.3714 36.3032 29.5036 36.2433 29.6416 36.2432H33.8662C34.0042 36.2433 34.1364 36.3032 34.2339 36.4095C34.3315 36.5159 34.3863 36.6601 34.3865 36.8105V42.2469C34.3863 42.3973 34.3315 42.5415 34.2339 42.6479C34.1364 42.7543 34.0042 42.8141 33.8662 42.8143Z" fill="#4B93E7"/>
<path d="M47.5091 30.5848H43.2844C43.1465 30.5846 43.0142 30.5248 42.9167 30.4184C42.8192 30.312 42.7643 30.1678 42.7642 30.0174V24.581C42.7643 24.4306 42.8192 24.2864 42.9167 24.18C43.0142 24.0737 43.1465 24.0138 43.2844 24.0137H47.5091C47.647 24.0138 47.7793 24.0737 47.8768 24.18C47.9743 24.2864 48.0292 24.4306 48.0294 24.581V30.0174C48.0292 30.1678 47.9743 30.3121 47.8768 30.4184C47.7793 30.5248 47.647 30.5846 47.5091 30.5848Z" fill="#4B93E7"/>
<path d="M65.1985 24.659H60.9739C60.836 24.6588 60.7037 24.599 60.6062 24.4926C60.5086 24.3863 60.4538 24.2421 60.4536 24.0916V18.6552C60.4538 18.5048 60.5086 18.3606 60.6062 18.2542C60.7037 18.1479 60.836 18.0881 60.9739 18.0879H65.1985C65.3365 18.0881 65.4687 18.1479 65.5663 18.2542C65.6638 18.3606 65.7187 18.5048 65.7188 18.6552V24.0916C65.7187 24.2421 65.6638 24.3863 65.5663 24.4926C65.4687 24.599 65.3365 24.6588 65.1985 24.659Z" fill="#4B93E7"/>
<path d="M81.5005 24.659H77.2759C77.138 24.6588 77.0057 24.599 76.9082 24.4926C76.8106 24.3863 76.7558 24.2421 76.7556 24.0916V18.6552C76.7558 18.5048 76.8106 18.3606 76.9082 18.2542C77.0057 18.1479 77.138 18.0881 77.2759 18.0879H81.5005C81.6385 18.0881 81.7707 18.1479 81.8683 18.2542C81.9658 18.3606 82.0207 18.5048 82.0208 18.6552V24.0916C82.0207 24.2421 81.9658 24.3863 81.8683 24.4926C81.7707 24.599 81.6385 24.6588 81.5005 24.659Z" fill="#4B93E7"/>
<path d="M89.0157 26.1722H84.791C84.6531 26.172 84.5208 26.1122 84.4233 26.0058C84.3258 25.8995 84.2709 25.7552 84.2708 25.6048V20.1684C84.2709 20.018 84.3258 19.8738 84.4233 19.7674C84.5208 19.6611 84.6531 19.6012 84.791 19.6011H89.0157C89.1536 19.6012 89.2859 19.6611 89.3834 19.7674C89.4809 19.8738 89.5358 20.018 89.536 20.1684V25.6048C89.5358 25.7552 89.4809 25.8995 89.3834 26.0058C89.2859 26.1122 89.1536 26.172 89.0157 26.1722Z" fill="#E6E6E6"/>
<path d="M85.6628 35.8802H81.4381C81.3002 35.88 81.1679 35.8202 81.0704 35.7138C80.9729 35.6075 80.918 35.4633 80.9178 35.3128V29.8764C80.918 29.726 80.9729 29.5818 81.0704 29.4754C81.1679 29.3691 81.3002 29.3093 81.4381 29.3091H85.6628C85.8007 29.3093 85.933 29.3691 86.0305 29.4754C86.128 29.5818 86.1829 29.726 86.1831 29.8764V35.3128C86.1829 35.4633 86.128 35.6075 86.0305 35.7138C85.933 35.8202 85.8007 35.88 85.6628 35.8802Z" fill="#E6E6E6"/>
<path d="M71.3262 33.8626H67.1016C66.9636 33.8624 66.8314 33.8026 66.7339 33.6962C66.6363 33.5899 66.5815 33.4457 66.5813 33.2953V27.8589C66.5815 27.7084 66.6363 27.5642 66.7339 27.4579C66.8314 27.3515 66.9636 27.2917 67.1016 27.2915H71.3262C71.4642 27.2917 71.5964 27.3515 71.694 27.4579C71.7915 27.5642 71.8464 27.7084 71.8465 27.8589V33.2953C71.8464 33.4457 71.7915 33.5899 71.694 33.6962C71.5964 33.8026 71.4642 33.8624 71.3262 33.8626Z" fill="#F7AC25"/>
<path d="M63.1174 35.8802H58.8928C58.7548 35.88 58.6226 35.8202 58.525 35.7138C58.4275 35.6075 58.3727 35.4633 58.3725 35.3128V29.8764C58.3727 29.726 58.4275 29.5818 58.525 29.4754C58.6226 29.3691 58.7548 29.3093 58.8928 29.3091H63.1174C63.2554 29.3093 63.3876 29.3691 63.4851 29.4754C63.5827 29.5818 63.6376 29.726 63.6377 29.8764V35.3128C63.6376 35.4633 63.5827 35.6075 63.4851 35.7138C63.3876 35.8202 63.2554 35.88 63.1174 35.8802Z" fill="#E6E6E6"/>
<path d="M45.428 44.4534H41.2033C41.0654 44.4533 40.9331 44.3934 40.8356 44.2871C40.7381 44.1807 40.6832 44.0365 40.683 43.8861V38.4497C40.6832 38.2993 40.7381 38.155 40.8356 38.0487C40.9331 37.9423 41.0654 37.8825 41.2033 37.8823H45.428C45.5659 37.8825 45.6982 37.9423 45.7957 38.0487C45.8932 38.155 45.9481 38.2993 45.9483 38.4497V43.8861C45.9481 44.0365 45.8932 44.1807 45.7957 44.2871C45.6982 44.3934 45.5659 44.4533 45.428 44.4534Z" fill="#E6E6E6"/>
<path d="M24.0388 37.2669H19.8141C19.6762 37.2667 19.5439 37.2069 19.4464 37.1005C19.3488 36.9942 19.294 36.85 19.2938 36.6996V31.2631C19.294 31.1127 19.3488 30.9685 19.4464 30.8622C19.5439 30.7558 19.6762 30.696 19.8141 30.6958H24.0388C24.1767 30.696 24.3089 30.7558 24.4065 30.8622C24.504 30.9685 24.5589 31.1127 24.559 31.2631V36.6996C24.5589 36.85 24.504 36.9942 24.4065 37.1005C24.3089 37.2069 24.1767 37.2667 24.0388 37.2669Z" fill="#F7AC25"/>
<path d="M35.9473 27.3069H31.7227C31.5847 27.3068 31.4525 27.2469 31.3549 27.1406C31.2574 27.0342 31.2025 26.89 31.2024 26.7396V21.3032C31.2025 21.1528 31.2574 21.0086 31.3549 20.9022C31.4525 20.7958 31.5847 20.736 31.7227 20.7358H35.9473C36.0853 20.736 36.2175 20.7958 36.315 20.9022C36.4126 21.0086 36.4675 21.1528 36.4676 21.3032V26.7396C36.4674 26.89 36.4126 27.0342 36.315 27.1406C36.2175 27.2469 36.0853 27.3068 35.9473 27.3069Z" fill="#E6E6E6"/>
<path d="M32.4886 12.2293H25.8984C25.7757 12.2293 25.6581 12.1762 25.5714 12.0816C25.4846 11.987 25.4359 11.8588 25.4359 11.725C25.4359 11.5913 25.4846 11.463 25.5714 11.3684C25.6581 11.2738 25.7757 11.2207 25.8984 11.2207H32.4886C32.6112 11.2207 32.7289 11.2738 32.8156 11.3684C32.9023 11.463 32.951 11.5913 32.951 11.725C32.951 11.8588 32.9023 11.987 32.8156 12.0816C32.7289 12.1762 32.6112 12.2293 32.4886 12.2293Z" fill="#CCCCCC"/>
<path d="M51.1029 12.2293H44.5128C44.3901 12.2293 44.2725 12.1762 44.1857 12.0816C44.099 11.987 44.0503 11.8588 44.0503 11.725C44.0503 11.5913 44.099 11.463 44.1857 11.3684C44.2725 11.2738 44.3901 11.2207 44.5128 11.2207H51.1029C51.2256 11.2207 51.3432 11.2738 51.43 11.3684C51.5167 11.463 51.5654 11.5913 51.5654 11.725C51.5654 11.8588 51.5167 11.987 51.43 12.0816C51.3432 12.1762 51.2256 12.2293 51.1029 12.2293Z" fill="#CCCCCC"/>
<path d="M68.5611 12.2293H61.971C61.8483 12.2293 61.7307 12.1762 61.6439 12.0816C61.5572 11.987 61.5085 11.8588 61.5085 11.725C61.5085 11.5913 61.5572 11.463 61.6439 11.3684C61.7307 11.2738 61.8483 11.2207 61.971 11.2207H68.5611C68.6838 11.2207 68.8014 11.2738 68.8882 11.3684C68.9749 11.463 69.0236 11.5913 69.0236 11.725C69.0236 11.8588 68.9749 11.987 68.8882 12.0816C68.8014 12.1762 68.6838 12.2293 68.5611 12.2293Z" fill="#CCCCCC"/>
<path d="M84.8632 12.2293H78.273C78.1504 12.2293 78.0327 12.1762 77.946 12.0816C77.8593 11.987 77.8105 11.8588 77.8105 11.725C77.8105 11.5913 77.8593 11.463 77.946 11.3684C78.0327 11.2738 78.1504 11.2207 78.273 11.2207H84.8632C84.9859 11.2207 85.1035 11.2738 85.1902 11.3684C85.2769 11.463 85.3257 11.5913 85.3257 11.725C85.3257 11.8588 85.2769 11.987 85.1902 12.0816C85.1035 12.1762 84.9859 12.2293 84.8632 12.2293Z" fill="#CCCCCC"/>
<path d="M17.728 49.1567C17.5589 49.1386 17.3954 49.0803 17.2491 48.9859C17.1029 48.8915 16.9774 48.7633 16.8815 48.6103C16.7856 48.4572 16.7216 48.2832 16.6941 48.1003C16.6665 47.9174 16.6761 47.7301 16.7221 47.5517L13.7585 44.5433L15.3255 44.1099L18.2397 46.6874C18.5094 46.7915 18.7348 47 18.873 47.2732C19.0112 47.5465 19.0527 47.8655 18.9897 48.1699C18.9266 48.4742 18.7633 48.7428 18.5308 48.9247C18.2983 49.1066 18.0126 49.1891 17.728 49.1567Z" fill="#FFB8B8"/>
<path d="M21.8203 71.3916H23.2378L23.9121 65.4297H21.8201L21.8203 71.3916Z" fill="#FFB8B8"/>
<path d="M25.9714 72.8267L21.5166 72.8269L21.5165 70.95L24.2502 70.9498C24.7067 70.9498 25.1445 71.1475 25.4673 71.4995C25.7901 71.8515 25.9714 72.3289 25.9714 72.8267Z" fill="#082777"/>
<path d="M12.1016 70.2759L13.4715 70.6735L15.5296 65.1014L13.508 64.5146L12.1016 70.2759Z" fill="#FFB8B8"/>
<path d="M15.7745 72.8271L11.4696 71.5776L11.9123 69.7639L14.554 70.5306C14.9951 70.6587 15.3715 70.9726 15.6004 71.4032C15.8293 71.8339 15.892 72.3461 15.7745 72.8271Z" fill="#082777"/>
<path d="M23.6189 70.263H21.456C21.3194 70.2635 21.1876 70.2082 21.0865 70.1081C20.9853 70.0079 20.9222 69.8701 20.9096 69.7217L19.5966 54.8532C19.587 54.7442 19.5429 54.6421 19.4719 54.5646C19.4009 54.4871 19.3074 54.4389 19.2074 54.4282C19.1074 54.4176 19.0071 54.4451 18.9237 54.5062C18.8403 54.5673 18.779 54.6581 18.7502 54.7631L14.9379 68.6567C14.8976 68.8044 14.8065 68.9294 14.6837 69.0056C14.561 69.0819 14.4159 69.1035 14.2789 69.066L12.2668 68.5173C12.1966 68.4982 12.1305 68.4641 12.0724 68.417C12.0143 68.3699 11.9653 68.3108 11.9283 68.243C11.8912 68.1752 11.8669 68.1 11.8565 68.0219C11.8462 67.9438 11.8502 67.8642 11.8682 67.7877C11.9011 67.6477 15.153 53.7896 15.1814 53.6471C15.9182 47.7255 16.7997 46.1387 17.2732 45.2864C17.3124 45.2158 17.3485 45.1509 17.3809 45.0896C17.4215 45.0129 17.6714 44.2519 17.8299 43.7577C17.8505 43.6773 17.8861 43.6024 17.9346 43.5378C17.9831 43.4732 18.0433 43.4202 18.1114 43.3823C20.1013 42.2726 22.4294 43.0407 23.0956 43.3026C23.206 43.345 23.3009 43.4253 23.3659 43.5315C25.3643 46.8185 24.3836 65.9091 24.1667 69.7028C24.1577 69.8545 24.0961 69.9969 23.9943 70.1009C23.8926 70.2049 23.7584 70.2629 23.6189 70.263Z" fill="#082777"/>
<path d="M18.0373 32.6019C19.6056 32.6019 20.877 31.2155 20.877 29.5053C20.877 27.7951 19.6056 26.4087 18.0373 26.4087C16.469 26.4087 15.1976 27.7951 15.1976 29.5053C15.1976 31.2155 16.469 32.6019 18.0373 32.6019Z" fill="#FFB8B8"/>
<path d="M17.7364 44.359L17.716 44.3374C17.6778 44.2971 13.8942 40.2551 14.3839 36.5176C14.5933 34.9189 15.7794 33.8975 17.814 33.5635C18.5614 33.4424 19.3238 33.6196 19.9611 34.0625C20.5983 34.5054 21.0675 35.1843 21.2825 35.9742L23.2942 43.4739L17.7364 44.359Z" fill="#CCCCCC"/>
<path d="M15.8 47.2337L13.104 44.3123C12.9196 44.1114 12.7858 43.8622 12.7153 43.5886C12.6449 43.315 12.6401 43.0262 12.7016 42.75L14.0068 36.9607C14.0459 36.7872 14.1172 36.6243 14.2164 36.4821C14.3155 36.3399 14.4404 36.2214 14.5832 36.134C14.7261 36.0465 14.8838 35.9919 15.0468 35.9737C15.2098 35.9554 15.3744 35.9738 15.5306 36.0277C15.8283 36.1323 16.077 36.3592 16.2239 36.6603C16.3708 36.9614 16.4045 37.313 16.3179 37.6407L14.9438 42.7338L17.1658 45.3356L15.8 47.2337Z" fill="#CCCCCC"/>
<path d="M30.2604 37.2635C30.1891 37.4318 30.0849 37.581 29.955 37.7005C29.8251 37.8201 29.6728 37.9072 29.5087 37.9556C29.3447 38.004 29.1729 38.0126 29.0054 37.9808C28.838 37.949 28.679 37.8775 28.5396 37.7715L24.9405 39.8056L25.0996 38.0777L28.2902 35.9244C28.4692 35.6809 28.7238 35.5174 29.0059 35.4649C29.288 35.4125 29.5779 35.4746 29.8208 35.6397C30.0636 35.8048 30.2425 36.0613 30.3235 36.3605C30.4046 36.6598 30.3821 36.9811 30.2604 37.2635Z" fill="#FFB8B8"/>
<path d="M28.1466 38.5499L24.638 40.2032C24.4045 40.3124 24.1491 40.3542 23.8965 40.3247C23.6438 40.2951 23.4024 40.1952 23.1954 40.0345L18.7339 36.5486C18.6007 36.4445 18.4886 36.3118 18.4044 36.1586C18.3201 36.0053 18.2656 35.8349 18.2443 35.6578C18.2229 35.4807 18.235 35.3007 18.28 35.1289C18.325 34.9571 18.4018 34.7973 18.5057 34.6592C18.7054 34.3966 18.991 34.2292 19.3019 34.1923C19.6129 34.1554 19.9248 34.2519 20.1716 34.4615L23.9972 37.7448L27.038 36.4619L28.1466 38.5499Z" fill="#CCCCCC"/>
<path d="M18.5081 30.4974C18.8584 30.0187 19.5129 29.993 19.9941 29.6772C20.6244 29.2637 20.885 28.3395 20.6819 27.5685C20.4788 26.7975 19.8797 26.1966 19.1929 25.9093C18.5061 25.6219 17.742 25.6183 17.0175 25.7573C15.9387 25.9641 14.8767 26.5131 14.2188 27.468C13.5609 28.4229 13.3934 29.8213 13.9897 30.8232C14.2637 31.2837 14.6868 31.6638 14.7962 32.1996C14.9398 32.9031 14.4873 33.5815 14.0025 34.0714C13.4503 34.6294 12.8167 35.0968 12.3328 35.7259C11.849 36.3549 11.5263 37.2144 11.7471 37.9993C11.9321 38.657 12.4704 39.1415 13.0607 39.3842C13.651 39.6268 14.2939 39.6619 14.9246 39.6753C15.537 39.6884 16.1875 39.6721 16.7034 39.312C17.2558 38.9265 17.5507 38.1952 17.5725 37.4805C17.5942 36.7658 17.3752 36.0656 17.0817 35.4261C16.9068 35.045 16.7033 34.6757 16.5871 34.2687C16.4708 33.8618 16.4507 33.4 16.6369 33.0252C16.8326 32.6313 17.2285 32.3937 17.6316 32.3073C17.6526 32.3028 17.6747 32.2988 17.6979 32.2953C17.8126 32.279 17.9231 32.2376 18.0227 32.1735C18.1223 32.1094 18.209 32.0239 18.2774 31.9222C18.3459 31.8205 18.3947 31.7048 18.421 31.5819C18.4472 31.4591 18.4503 31.3317 18.4302 31.2075C18.3842 30.9283 18.3882 30.6611 18.5081 30.4974Z" fill="#082777"/>
<path d="M56.3696 71.5235H54.9522L54.2779 65.5615L56.3699 65.5616L56.3696 71.5235Z" fill="#A0616A"/>
<path d="M53.9397 71.082H56.6733V72.9589H52.2185C52.2185 72.7125 52.263 72.4684 52.3495 72.2407C52.436 72.013 52.5628 71.8061 52.7226 71.6318C52.8825 71.4575 53.0722 71.3192 53.281 71.2249C53.4898 71.1306 53.7137 71.082 53.9397 71.082Z" fill="#082777"/>
<path d="M66.6543 69.7727L65.3651 70.4148L62.48 65.2975L64.3829 64.3496L66.6543 69.7727Z" fill="#A0616A"/>
<path d="M64.2759 70.4722L66.7624 69.2337L67.4775 70.9409L63.4254 72.9592C63.3314 72.735 63.279 72.4928 63.2709 72.2465C63.2628 72.0002 63.2993 71.7545 63.3783 71.5236C63.4572 71.2927 63.5772 71.0809 63.7312 70.9005C63.8852 70.7201 64.0703 70.5746 64.2759 70.4722Z" fill="#082777"/>
<path d="M62.5265 51.4215C62.6623 51.3101 62.7741 51.1675 62.8539 51.0039C62.9337 50.8402 62.9796 50.6595 62.9885 50.4744C62.9973 50.2893 62.9688 50.1044 62.905 49.9326C62.8412 49.7608 62.7436 49.6064 62.6192 49.4801L64.2854 45.3574L62.1686 45.7486L60.9108 49.6036C60.7302 49.8457 60.6374 50.1516 60.6498 50.4634C60.6622 50.7751 60.7791 51.0711 60.9782 51.2952C61.1774 51.5192 61.445 51.6559 61.7304 51.6792C62.0157 51.7025 62.299 51.6108 62.5265 51.4215Z" fill="#A0616A"/>
<path d="M56.2793 69.9517H54.9252C54.7939 69.9512 54.6675 69.8968 54.5713 69.7993C54.4752 69.7018 54.4162 69.5683 54.4063 69.4255L53.6678 47.9219C53.6623 47.8395 53.6734 47.7568 53.7003 47.6796C53.7271 47.6023 53.7692 47.5324 53.8234 47.4747C53.8776 47.417 53.9428 47.3729 54.0143 47.3455C54.0857 47.3182 54.1619 47.3081 54.2373 47.3162L62.0686 48.2231C62.1955 48.2366 62.3135 48.3005 62.4 48.4026C62.4866 48.5047 62.5358 48.638 62.5383 48.777L62.7024 58.2625C62.7032 58.314 62.7124 58.3649 62.7294 58.4129L65.9418 67.4972C65.9667 67.5673 65.9784 67.6422 65.9765 67.7174C65.9745 67.7926 65.9589 67.8666 65.9304 67.9351C65.902 68.0036 65.8613 68.0653 65.8108 68.1166C65.7603 68.1678 65.701 68.2076 65.6363 68.2336L64.2641 68.7849C64.1449 68.8327 64.0138 68.8314 63.8954 68.7812C63.7771 68.7309 63.6797 68.6352 63.6215 68.512L59.6752 60.1444C59.6537 60.0989 59.638 60.0505 59.6285 60.0003L58.9543 56.4584C58.9348 56.3557 58.8823 56.2639 58.8064 56.1996C58.7304 56.1352 58.6359 56.1025 58.5398 56.1072C58.4437 56.112 58.3523 56.1539 58.282 56.2255C58.2117 56.297 58.1671 56.3936 58.1561 56.4978L56.7962 69.4489C56.7817 69.5873 56.721 69.715 56.6257 69.8078C56.5303 69.9005 56.407 69.9518 56.2793 69.9517Z" fill="#082777"/>
<path d="M56.9536 31.1082C58.5219 31.1082 59.7933 29.7218 59.7933 28.0116C59.7933 26.3014 58.5219 24.915 56.9536 24.915C55.3853 24.915 54.1139 26.3014 54.1139 28.0116C54.1139 29.7218 55.3853 31.1082 56.9536 31.1082Z" fill="#A0616A"/>
<path d="M58.901 49.8881C56.9753 49.8649 55.0955 49.244 53.4817 48.098L53.454 48.0772L53.4569 48.0407L54.5431 34.2458C54.5806 33.7778 54.7721 33.3404 55.0824 33.0145C55.3927 32.6886 55.8007 32.4962 56.231 32.4729C57.6388 32.4024 59.5297 32.4914 60.5419 33.3134C62.0716 34.5559 62.8089 36.4268 62.5647 38.4464C62.0583 42.6345 62.632 48.2841 62.699 48.9145L62.7039 48.9599L62.6658 48.979C61.4865 49.5773 60.2016 49.8875 58.901 49.8881Z" fill="#4B93E7"/>
<path d="M62.6859 48.9381C62.6059 48.9379 62.5267 48.9197 62.4535 48.8845C62.3802 48.8493 62.3145 48.7979 62.2603 48.7336L61.6392 47.9946C61.5721 47.9143 61.525 47.8165 61.5026 47.7106C61.4801 47.6047 61.483 47.4943 61.511 47.39L62.9273 42.1624L60.7723 37.2273C60.6716 36.9963 60.647 36.7345 60.7024 36.486C60.7514 36.2679 60.8597 36.0711 61.0133 35.9215C61.1669 35.7719 61.3585 35.6766 61.5627 35.6481C61.767 35.6197 61.9744 35.6594 62.1575 35.7621C62.3406 35.8648 62.4909 36.0256 62.5885 36.2233L65.513 41.3977C65.6318 41.6077 65.7016 41.8462 65.7161 42.0924C65.7306 42.3385 65.6895 42.5848 65.5963 42.8096L63.2134 48.5669C63.1742 48.6621 63.1138 48.7451 63.0378 48.8085C62.9618 48.8719 62.8725 48.9136 62.778 48.93C62.7475 48.9353 62.7167 48.938 62.6859 48.9381Z" fill="#4B93E7"/>
<path d="M42.67 38.9518C42.8064 39.0624 42.9633 39.139 43.1298 39.1763C43.2963 39.2137 43.4683 39.2107 43.6336 39.1677C43.7989 39.1247 43.9536 39.0427 44.0867 38.9274C44.2199 38.8122 44.3282 38.6665 44.4041 38.5007L48.5013 39.0802L47.5597 36.9761L43.8133 36.7484C43.5493 36.6279 43.254 36.617 42.9833 36.718C42.7125 36.819 42.4851 37.0248 42.3442 37.2964C42.2033 37.568 42.1586 37.8865 42.2187 38.1916C42.2787 38.4967 42.4393 38.7672 42.67 38.9518Z" fill="#A0616A"/>
<path d="M51.701 40.1009C51.6297 40.1009 51.5584 40.0955 51.4877 40.0848L45.042 39.1099C44.9366 39.0941 44.8366 39.05 44.7508 38.9815C44.665 38.9131 44.5961 38.8224 44.5505 38.7177C44.5358 38.6839 44.5235 38.649 44.5138 38.6131C44.4888 38.52 44.4818 38.4223 44.4933 38.3262C44.5047 38.23 44.5343 38.1375 44.5802 38.0544L45.1136 37.09C45.171 36.987 45.2517 36.9017 45.348 36.8424C45.4443 36.7831 45.5529 36.7518 45.6635 36.7514H45.6643L51.2829 36.7584L55.4791 32.6587C55.6743 32.4685 55.9236 32.3572 56.1852 32.3436C56.4148 32.332 56.6423 32.3966 56.8376 32.5288C57.0329 32.6611 57.1869 32.8548 57.2792 33.0843C57.3715 33.3139 57.3978 33.5687 57.3547 33.8149C57.3116 34.0611 57.201 34.2873 57.0376 34.4637L52.8505 39.5418C52.7056 39.7178 52.5284 39.8585 52.3303 39.9548C52.1323 40.0511 51.9179 40.1009 51.701 40.1009Z" fill="#4B93E7"/>
<path d="M57.2764 30.7666C57.5359 30.1117 57.7555 29.2395 57.2577 28.7765C56.969 28.5079 56.5532 28.5073 56.1749 28.4739C55.1092 28.3798 54.0122 27.8451 53.4914 26.8269C52.9705 25.8087 53.2614 24.2947 54.2441 23.8353C54.9065 23.5257 55.6658 23.7366 56.3592 23.951L58.441 24.5948C59.0595 24.7861 59.709 24.997 60.1543 25.5027C60.8645 26.3093 60.8114 27.6727 60.2473 28.6065C59.6833 29.5403 58.8338 30.5142 57.8613 30.8687L57.2764 30.7666Z" fill="#082777"/>
<path d="M85.9972 72.9999H0.637636C0.619524 73 0.60158 72.9962 0.584832 72.9886C0.568084 72.9811 0.552862 72.9701 0.540036 72.9561C0.52721 72.9422 0.517034 72.9256 0.510091 72.9074C0.503148 72.8891 0.499573 72.8696 0.499573 72.8498C0.499573 72.8301 0.503148 72.8105 0.510091 72.7923C0.517034 72.774 0.52721 72.7575 0.540036 72.7435C0.552862 72.7296 0.568084 72.7185 0.584832 72.711C0.60158 72.7035 0.619524 72.6997 0.637636 72.6997H85.9972C86.0153 72.6997 86.0333 72.7035 86.05 72.711C86.0668 72.7185 86.082 72.7296 86.0948 72.7435C86.1076 72.7575 86.1178 72.774 86.1247 72.7923C86.1317 72.8105 86.1353 72.8301 86.1353 72.8498C86.1353 72.8696 86.1317 72.8891 86.1247 72.9074C86.1178 72.9256 86.1076 72.9422 86.0948 72.9561C86.082 72.9701 86.0668 72.9811 86.05 72.9886C86.0333 72.9962 86.0153 73 85.9972 72.9999Z" fill="#3F3D56"/>
</g>
<defs>
<clipPath id="clip0_6302_500">
<rect width="95" height="73" fill="white" transform="translate(0.5)"/>
</clipPath>
</defs>
</svg>
