<svg width="96" height="60" viewBox="0 0 96 60" fill="none" xmlns="http://www.w3.org/2000/svg">
<path d="M10.9663 48.4C10.9663 47.3013 11.2116 46.32 11.7023 45.456C12.2036 44.5813 12.8809 43.904 13.7343 43.424C14.5983 42.9333 15.5636 42.688 16.6303 42.688C17.8783 42.688 18.9716 43.008 19.9103 43.648C20.8489 44.288 21.5049 45.1733 21.8783 46.304H19.3023C19.0463 45.7707 18.6836 45.3707 18.2143 45.104C17.7556 44.8373 17.2223 44.704 16.6143 44.704C15.9636 44.704 15.3823 44.8587 14.8703 45.168C14.3689 45.4667 13.9743 45.8933 13.6863 46.448C13.4089 47.0027 13.2703 47.6533 13.2703 48.4C13.2703 49.136 13.4089 49.7867 13.6863 50.352C13.9743 50.9067 14.3689 51.3387 14.8703 51.648C15.3823 51.9467 15.9636 52.096 16.6143 52.096C17.2223 52.096 17.7556 51.9627 18.2143 51.696C18.6836 51.4187 19.0463 51.0133 19.3023 50.48H21.8783C21.5049 51.6213 20.8489 52.512 19.9103 53.152C18.9823 53.7813 17.8889 54.096 16.6303 54.096C15.5636 54.096 14.5983 53.856 13.7343 53.376C12.8809 52.8853 12.2036 52.208 11.7023 51.344C11.2116 50.48 10.9663 49.4987 10.9663 48.4ZM23.2155 49.536C23.2155 48.64 23.3915 47.8453 23.7435 47.152C24.1062 46.4587 24.5915 45.9253 25.1995 45.552C25.8182 45.1787 26.5062 44.992 27.2635 44.992C27.9248 44.992 28.5008 45.1253 28.9915 45.392C29.4928 45.6587 29.8928 45.9947 30.1915 46.4V45.136H32.4475V54H30.1915V52.704C29.9035 53.12 29.5035 53.4667 28.9915 53.744C28.4902 54.0107 27.9088 54.144 27.2475 54.144C26.5008 54.144 25.8182 53.952 25.1995 53.568C24.5915 53.184 24.1062 52.6453 23.7435 51.952C23.3915 51.248 23.2155 50.4427 23.2155 49.536ZM30.1915 49.568C30.1915 49.024 30.0848 48.56 29.8715 48.176C29.6582 47.7813 29.3702 47.4827 29.0075 47.28C28.6448 47.0667 28.2555 46.96 27.8395 46.96C27.4235 46.96 27.0395 47.0613 26.6875 47.264C26.3355 47.4667 26.0475 47.7653 25.8235 48.16C25.6102 48.544 25.5035 49.0027 25.5035 49.536C25.5035 50.0693 25.6102 50.5387 25.8235 50.944C26.0475 51.3387 26.3355 51.6427 26.6875 51.856C27.0502 52.0693 27.4342 52.176 27.8395 52.176C28.2555 52.176 28.6448 52.0747 29.0075 51.872C29.3702 51.6587 29.6582 51.36 29.8715 50.976C30.0848 50.5813 30.1915 50.112 30.1915 49.568ZM36.8753 42.16V54H34.6353V42.16H36.8753ZM47.3284 49.376C47.3284 49.696 47.307 49.984 47.2644 50.24H40.7844C40.8377 50.88 41.0617 51.3813 41.4564 51.744C41.851 52.1067 42.3364 52.288 42.9124 52.288C43.7444 52.288 44.3364 51.9307 44.6884 51.216H47.1044C46.8484 52.0693 46.3577 52.7733 45.6324 53.328C44.907 53.872 44.0164 54.144 42.9604 54.144C42.107 54.144 41.339 53.9573 40.6564 53.584C39.9844 53.2 39.4564 52.6613 39.0724 51.968C38.699 51.2747 38.5124 50.4747 38.5124 49.568C38.5124 48.6507 38.699 47.8453 39.0724 47.152C39.4457 46.4587 39.9684 45.9253 40.6404 45.552C41.3124 45.1787 42.0857 44.992 42.9604 44.992C43.803 44.992 44.555 45.1733 45.2164 45.536C45.8884 45.8987 46.4057 46.416 46.7684 47.088C47.1417 47.7493 47.3284 48.512 47.3284 49.376ZM45.0084 48.736C44.9977 48.16 44.7897 47.7013 44.3844 47.36C43.979 47.008 43.483 46.832 42.8964 46.832C42.3417 46.832 41.8724 47.0027 41.4884 47.344C41.115 47.6747 40.8857 48.1387 40.8004 48.736H45.0084ZM53.8754 45.008C54.9314 45.008 55.7847 45.344 56.4354 46.016C57.086 46.6773 57.4114 47.6053 57.4114 48.8V54H55.1714V49.104C55.1714 48.4 54.9954 47.8613 54.6434 47.488C54.2914 47.104 53.8114 46.912 53.2034 46.912C52.5847 46.912 52.094 47.104 51.7314 47.488C51.3794 47.8613 51.2034 48.4 51.2034 49.104V54H48.9634V45.136H51.2034V46.24C51.502 45.856 51.8807 45.5573 52.3394 45.344C52.8087 45.12 53.3207 45.008 53.8754 45.008ZM58.9655 49.536C58.9655 48.64 59.1415 47.8453 59.4935 47.152C59.8562 46.4587 60.3468 45.9253 60.9655 45.552C61.5842 45.1787 62.2722 44.992 63.0295 44.992C63.6055 44.992 64.1548 45.12 64.6775 45.376C65.2002 45.6213 65.6162 45.952 65.9255 46.368V42.16H68.1975V54H65.9255V52.688C65.6482 53.1253 65.2588 53.4773 64.7575 53.744C64.2562 54.0107 63.6748 54.144 63.0135 54.144C62.2668 54.144 61.5842 53.952 60.9655 53.568C60.3468 53.184 59.8562 52.6453 59.4935 51.952C59.1415 51.248 58.9655 50.4427 58.9655 49.536ZM65.9415 49.568C65.9415 49.024 65.8348 48.56 65.6215 48.176C65.4082 47.7813 65.1202 47.4827 64.7575 47.28C64.3948 47.0667 64.0055 46.96 63.5895 46.96C63.1735 46.96 62.7895 47.0613 62.4375 47.264C62.0855 47.4667 61.7975 47.7653 61.5735 48.16C61.3602 48.544 61.2535 49.0027 61.2535 49.536C61.2535 50.0693 61.3602 50.5387 61.5735 50.944C61.7975 51.3387 62.0855 51.6427 62.4375 51.856C62.8002 52.0693 63.1842 52.176 63.5895 52.176C64.0055 52.176 64.3948 52.0747 64.7575 51.872C65.1202 51.6587 65.4082 51.36 65.6215 50.976C65.8348 50.5813 65.9415 50.112 65.9415 49.568ZM69.8092 49.536C69.8092 48.64 69.9852 47.8453 70.3372 47.152C70.6999 46.4587 71.1853 45.9253 71.7933 45.552C72.4119 45.1787 73.0999 44.992 73.8573 44.992C74.5186 44.992 75.0946 45.1253 75.5853 45.392C76.0866 45.6587 76.4866 45.9947 76.7853 46.4V45.136H79.0413V54H76.7853V52.704C76.4973 53.12 76.0973 53.4667 75.5853 53.744C75.0839 54.0107 74.5026 54.144 73.8413 54.144C73.0946 54.144 72.4119 53.952 71.7933 53.568C71.1853 53.184 70.6999 52.6453 70.3372 51.952C69.9852 51.248 69.8092 50.4427 69.8092 49.536ZM76.7853 49.568C76.7853 49.024 76.6786 48.56 76.4653 48.176C76.2519 47.7813 75.9639 47.4827 75.6013 47.28C75.2386 47.0667 74.8493 46.96 74.4333 46.96C74.0173 46.96 73.6333 47.0613 73.2812 47.264C72.9293 47.4667 72.6413 47.7653 72.4173 48.16C72.2039 48.544 72.0973 49.0027 72.0973 49.536C72.0973 50.0693 72.2039 50.5387 72.4173 50.944C72.6413 51.3387 72.9293 51.6427 73.2812 51.856C73.6439 52.0693 74.0279 52.176 74.4333 52.176C74.8493 52.176 75.2386 52.0747 75.6013 51.872C75.9639 51.6587 76.2519 51.36 76.4653 50.976C76.6786 50.5813 76.7853 50.112 76.7853 49.568ZM83.469 46.512C83.757 46.0427 84.1303 45.6747 84.589 45.408C85.0583 45.1413 85.5917 45.008 86.189 45.008V47.36H85.597C84.893 47.36 84.3597 47.5253 83.997 47.856C83.645 48.1867 83.469 48.7627 83.469 49.584V54H81.229V45.136H83.469V46.512Z" fill="#CFD8DC"/>
<path d="M10.9663 48.4C10.9663 47.3013 11.2116 46.32 11.7023 45.456C12.2036 44.5813 12.8809 43.904 13.7343 43.424C14.5983 42.9333 15.5636 42.688 16.6303 42.688C17.8783 42.688 18.9716 43.008 19.9103 43.648C20.8489 44.288 21.5049 45.1733 21.8783 46.304H19.3023C19.0463 45.7707 18.6836 45.3707 18.2143 45.104C17.7556 44.8373 17.2223 44.704 16.6143 44.704C15.9636 44.704 15.3823 44.8587 14.8703 45.168C14.3689 45.4667 13.9743 45.8933 13.6863 46.448C13.4089 47.0027 13.2703 47.6533 13.2703 48.4C13.2703 49.136 13.4089 49.7867 13.6863 50.352C13.9743 50.9067 14.3689 51.3387 14.8703 51.648C15.3823 51.9467 15.9636 52.096 16.6143 52.096C17.2223 52.096 17.7556 51.9627 18.2143 51.696C18.6836 51.4187 19.0463 51.0133 19.3023 50.48H21.8783C21.5049 51.6213 20.8489 52.512 19.9103 53.152C18.9823 53.7813 17.8889 54.096 16.6303 54.096C15.5636 54.096 14.5983 53.856 13.7343 53.376C12.8809 52.8853 12.2036 52.208 11.7023 51.344C11.2116 50.48 10.9663 49.4987 10.9663 48.4ZM23.2155 49.536C23.2155 48.64 23.3915 47.8453 23.7435 47.152C24.1062 46.4587 24.5915 45.9253 25.1995 45.552C25.8182 45.1787 26.5062 44.992 27.2635 44.992C27.9248 44.992 28.5008 45.1253 28.9915 45.392C29.4928 45.6587 29.8928 45.9947 30.1915 46.4V45.136H32.4475V54H30.1915V52.704C29.9035 53.12 29.5035 53.4667 28.9915 53.744C28.4902 54.0107 27.9088 54.144 27.2475 54.144C26.5008 54.144 25.8182 53.952 25.1995 53.568C24.5915 53.184 24.1062 52.6453 23.7435 51.952C23.3915 51.248 23.2155 50.4427 23.2155 49.536ZM30.1915 49.568C30.1915 49.024 30.0848 48.56 29.8715 48.176C29.6582 47.7813 29.3702 47.4827 29.0075 47.28C28.6448 47.0667 28.2555 46.96 27.8395 46.96C27.4235 46.96 27.0395 47.0613 26.6875 47.264C26.3355 47.4667 26.0475 47.7653 25.8235 48.16C25.6102 48.544 25.5035 49.0027 25.5035 49.536C25.5035 50.0693 25.6102 50.5387 25.8235 50.944C26.0475 51.3387 26.3355 51.6427 26.6875 51.856C27.0502 52.0693 27.4342 52.176 27.8395 52.176C28.2555 52.176 28.6448 52.0747 29.0075 51.872C29.3702 51.6587 29.6582 51.36 29.8715 50.976C30.0848 50.5813 30.1915 50.112 30.1915 49.568ZM36.8753 42.16V54H34.6353V42.16H36.8753ZM47.3284 49.376C47.3284 49.696 47.307 49.984 47.2644 50.24H40.7844C40.8377 50.88 41.0617 51.3813 41.4564 51.744C41.851 52.1067 42.3364 52.288 42.9124 52.288C43.7444 52.288 44.3364 51.9307 44.6884 51.216H47.1044C46.8484 52.0693 46.3577 52.7733 45.6324 53.328C44.907 53.872 44.0164 54.144 42.9604 54.144C42.107 54.144 41.339 53.9573 40.6564 53.584C39.9844 53.2 39.4564 52.6613 39.0724 51.968C38.699 51.2747 38.5124 50.4747 38.5124 49.568C38.5124 48.6507 38.699 47.8453 39.0724 47.152C39.4457 46.4587 39.9684 45.9253 40.6404 45.552C41.3124 45.1787 42.0857 44.992 42.9604 44.992C43.803 44.992 44.555 45.1733 45.2164 45.536C45.8884 45.8987 46.4057 46.416 46.7684 47.088C47.1417 47.7493 47.3284 48.512 47.3284 49.376ZM45.0084 48.736C44.9977 48.16 44.7897 47.7013 44.3844 47.36C43.979 47.008 43.483 46.832 42.8964 46.832C42.3417 46.832 41.8724 47.0027 41.4884 47.344C41.115 47.6747 40.8857 48.1387 40.8004 48.736H45.0084ZM53.8754 45.008C54.9314 45.008 55.7847 45.344 56.4354 46.016C57.086 46.6773 57.4114 47.6053 57.4114 48.8V54H55.1714V49.104C55.1714 48.4 54.9954 47.8613 54.6434 47.488C54.2914 47.104 53.8114 46.912 53.2034 46.912C52.5847 46.912 52.094 47.104 51.7314 47.488C51.3794 47.8613 51.2034 48.4 51.2034 49.104V54H48.9634V45.136H51.2034V46.24C51.502 45.856 51.8807 45.5573 52.3394 45.344C52.8087 45.12 53.3207 45.008 53.8754 45.008ZM58.9655 49.536C58.9655 48.64 59.1415 47.8453 59.4935 47.152C59.8562 46.4587 60.3468 45.9253 60.9655 45.552C61.5842 45.1787 62.2722 44.992 63.0295 44.992C63.6055 44.992 64.1548 45.12 64.6775 45.376C65.2002 45.6213 65.6162 45.952 65.9255 46.368V42.16H68.1975V54H65.9255V52.688C65.6482 53.1253 65.2588 53.4773 64.7575 53.744C64.2562 54.0107 63.6748 54.144 63.0135 54.144C62.2668 54.144 61.5842 53.952 60.9655 53.568C60.3468 53.184 59.8562 52.6453 59.4935 51.952C59.1415 51.248 58.9655 50.4427 58.9655 49.536ZM65.9415 49.568C65.9415 49.024 65.8348 48.56 65.6215 48.176C65.4082 47.7813 65.1202 47.4827 64.7575 47.28C64.3948 47.0667 64.0055 46.96 63.5895 46.96C63.1735 46.96 62.7895 47.0613 62.4375 47.264C62.0855 47.4667 61.7975 47.7653 61.5735 48.16C61.3602 48.544 61.2535 49.0027 61.2535 49.536C61.2535 50.0693 61.3602 50.5387 61.5735 50.944C61.7975 51.3387 62.0855 51.6427 62.4375 51.856C62.8002 52.0693 63.1842 52.176 63.5895 52.176C64.0055 52.176 64.3948 52.0747 64.7575 51.872C65.1202 51.6587 65.4082 51.36 65.6215 50.976C65.8348 50.5813 65.9415 50.112 65.9415 49.568ZM69.8092 49.536C69.8092 48.64 69.9852 47.8453 70.3372 47.152C70.6999 46.4587 71.1853 45.9253 71.7933 45.552C72.4119 45.1787 73.0999 44.992 73.8573 44.992C74.5186 44.992 75.0946 45.1253 75.5853 45.392C76.0866 45.6587 76.4866 45.9947 76.7853 46.4V45.136H79.0413V54H76.7853V52.704C76.4973 53.12 76.0973 53.4667 75.5853 53.744C75.0839 54.0107 74.5026 54.144 73.8413 54.144C73.0946 54.144 72.4119 53.952 71.7933 53.568C71.1853 53.184 70.6999 52.6453 70.3372 51.952C69.9852 51.248 69.8092 50.4427 69.8092 49.536ZM76.7853 49.568C76.7853 49.024 76.6786 48.56 76.4653 48.176C76.2519 47.7813 75.9639 47.4827 75.6013 47.28C75.2386 47.0667 74.8493 46.96 74.4333 46.96C74.0173 46.96 73.6333 47.0613 73.2812 47.264C72.9293 47.4667 72.6413 47.7653 72.4173 48.16C72.2039 48.544 72.0973 49.0027 72.0973 49.536C72.0973 50.0693 72.2039 50.5387 72.4173 50.944C72.6413 51.3387 72.9293 51.6427 73.2812 51.856C73.6439 52.0693 74.0279 52.176 74.4333 52.176C74.8493 52.176 75.2386 52.0747 75.6013 51.872C75.9639 51.6587 76.2519 51.36 76.4653 50.976C76.6786 50.5813 76.7853 50.112 76.7853 49.568ZM83.469 46.512C83.757 46.0427 84.1303 45.6747 84.589 45.408C85.0583 45.1413 85.5917 45.008 86.189 45.008V47.36H85.597C84.893 47.36 84.3597 47.5253 83.997 47.856C83.645 48.1867 83.469 48.7627 83.469 49.584V54H81.229V45.136H83.469V46.512Z" fill="#F0F7FF"/>
<g filter="url(#filter0_ii_49_2876)">
<path d="M66 9.14286V26.2857C66 29.3155 63.6423 31.7944 60.6614 31.9878L60.2857 32H39.7143C36.6846 32 34.2056 29.6423 34.0122 26.6614L34 26.2857V9.14286H66ZM43.1429 20.5714C41.8805 20.5714 40.8571 21.5948 40.8571 22.8571C40.8571 24.1195 41.8805 25.1429 43.1429 25.1429C44.4052 25.1429 45.4286 24.1195 45.4286 22.8571C45.4286 21.5948 44.4052 20.5714 43.1429 20.5714ZM50 20.5714C48.7376 20.5714 47.7143 21.5948 47.7143 22.8571C47.7143 24.1195 48.7376 25.1429 50 25.1429C51.2624 25.1429 52.2857 24.1195 52.2857 22.8571C52.2857 21.5948 51.2624 20.5714 50 20.5714ZM43.1429 13.7143C41.8805 13.7143 40.8571 14.7376 40.8571 16C40.8571 17.2624 41.8805 18.2857 43.1429 18.2857C44.4052 18.2857 45.4286 17.2624 45.4286 16C45.4286 14.7376 44.4052 13.7143 43.1429 13.7143ZM50 13.7143C48.7376 13.7143 47.7143 14.7376 47.7143 16C47.7143 17.2624 48.7376 18.2857 50 18.2857C51.2624 18.2857 52.2857 17.2624 52.2857 16C52.2857 14.7376 51.2624 13.7143 50 13.7143ZM56.8571 13.7143C55.5948 13.7143 54.5714 14.7376 54.5714 16C54.5714 17.2624 55.5948 18.2857 56.8571 18.2857C58.1195 18.2857 59.1429 17.2624 59.1429 16C59.1429 14.7376 58.1195 13.7143 56.8571 13.7143ZM60.2857 0C63.3154 0 65.7944 2.35778 65.9878 5.33857L66 5.71429V6.85714H34V5.71429C34 2.68461 36.3578 0.205626 39.3386 0.0121547L39.7143 0H60.2857Z" fill="#CFD8DC"/>
<path d="M66 9.14286V26.2857C66 29.3155 63.6423 31.7944 60.6614 31.9878L60.2857 32H39.7143C36.6846 32 34.2056 29.6423 34.0122 26.6614L34 26.2857V9.14286H66ZM43.1429 20.5714C41.8805 20.5714 40.8571 21.5948 40.8571 22.8571C40.8571 24.1195 41.8805 25.1429 43.1429 25.1429C44.4052 25.1429 45.4286 24.1195 45.4286 22.8571C45.4286 21.5948 44.4052 20.5714 43.1429 20.5714ZM50 20.5714C48.7376 20.5714 47.7143 21.5948 47.7143 22.8571C47.7143 24.1195 48.7376 25.1429 50 25.1429C51.2624 25.1429 52.2857 24.1195 52.2857 22.8571C52.2857 21.5948 51.2624 20.5714 50 20.5714ZM43.1429 13.7143C41.8805 13.7143 40.8571 14.7376 40.8571 16C40.8571 17.2624 41.8805 18.2857 43.1429 18.2857C44.4052 18.2857 45.4286 17.2624 45.4286 16C45.4286 14.7376 44.4052 13.7143 43.1429 13.7143ZM50 13.7143C48.7376 13.7143 47.7143 14.7376 47.7143 16C47.7143 17.2624 48.7376 18.2857 50 18.2857C51.2624 18.2857 52.2857 17.2624 52.2857 16C52.2857 14.7376 51.2624 13.7143 50 13.7143ZM56.8571 13.7143C55.5948 13.7143 54.5714 14.7376 54.5714 16C54.5714 17.2624 55.5948 18.2857 56.8571 18.2857C58.1195 18.2857 59.1429 17.2624 59.1429 16C59.1429 14.7376 58.1195 13.7143 56.8571 13.7143ZM60.2857 0C63.3154 0 65.7944 2.35778 65.9878 5.33857L66 5.71429V6.85714H34V5.71429C34 2.68461 36.3578 0.205626 39.3386 0.0121547L39.7143 0H60.2857Z" fill="#F0F7FF"/>
</g>
<defs>
<filter id="filter0_ii_49_2876" x="30" y="-4" width="40" height="40" filterUnits="userSpaceOnUse" color-interpolation-filters="sRGB">
<feFlood flood-opacity="0" result="BackgroundImageFix"/>
<feBlend mode="normal" in="SourceGraphic" in2="BackgroundImageFix" result="shape"/>
<feColorMatrix in="SourceAlpha" type="matrix" values="0 0 0 0 0 0 0 0 0 0 0 0 0 0 0 0 0 0 127 0" result="hardAlpha"/>
<feOffset dx="4" dy="4"/>
<feGaussianBlur stdDeviation="6"/>
<feComposite in2="hardAlpha" operator="arithmetic" k2="-1" k3="1"/>
<feColorMatrix type="matrix" values="0 0 0 0 0.733333 0 0 0 0 0.764706 0 0 0 0 0.807843 0 0 0 0.6 0"/>
<feBlend mode="normal" in2="shape" result="effect1_innerShadow_49_2876"/>
<feColorMatrix in="SourceAlpha" type="matrix" values="0 0 0 0 0 0 0 0 0 0 0 0 0 0 0 0 0 0 127 0" result="hardAlpha"/>
<feOffset dx="-4" dy="-4"/>
<feGaussianBlur stdDeviation="6"/>
<feComposite in2="hardAlpha" operator="arithmetic" k2="-1" k3="1"/>
<feColorMatrix type="matrix" values="0 0 0 0 0.992157 0 0 0 0 1 0 0 0 0 1 0 0 0 0.8 0"/>
<feBlend mode="normal" in2="effect1_innerShadow_49_2876" result="effect2_innerShadow_49_2876"/>
</filter>
</defs>
</svg>
