<svg width="96" height="60" viewBox="0 0 96 60" fill="none" xmlns="http://www.w3.org/2000/svg">
<path d="M0.817813 48.4C0.817813 47.3013 1.06315 46.32 1.55381 45.456C2.05515 44.5813 2.73248 43.904 3.58581 43.424C4.44981 42.9333 5.41515 42.688 6.48181 42.688C7.72981 42.688 8.82315 43.008 9.76181 43.648C10.7005 44.288 11.3565 45.1733 11.7298 46.304H9.15381C8.89781 45.7707 8.53515 45.3707 8.06581 45.104C7.60715 44.8373 7.07381 44.704 6.46581 44.704C5.81515 44.704 5.23381 44.8587 4.72181 45.168C4.22048 45.4667 3.82581 45.8933 3.53781 46.448C3.26048 47.0027 3.12181 47.6533 3.12181 48.4C3.12181 49.136 3.26048 49.7867 3.53781 50.352C3.82581 50.9067 4.22048 51.3387 4.72181 51.648C5.23381 51.9467 5.81515 52.096 6.46581 52.096C7.07381 52.096 7.60715 51.9627 8.06581 51.696C8.53515 51.4187 8.89781 51.0133 9.15381 50.48H11.7298C11.3565 51.6213 10.7005 52.512 9.76181 53.152C8.83381 53.7813 7.74048 54.096 6.48181 54.096C5.41515 54.096 4.44981 53.856 3.58581 53.376C2.73248 52.8853 2.05515 52.208 1.55381 51.344C1.06315 50.48 0.817813 49.4987 0.817813 48.4ZM13.0671 49.536C13.0671 48.64 13.2431 47.8453 13.5951 47.152C13.9577 46.4587 14.4431 45.9253 15.0511 45.552C15.6697 45.1787 16.3577 44.992 17.1151 44.992C17.7764 44.992 18.3524 45.1253 18.8431 45.392C19.3444 45.6587 19.7444 45.9947 20.0431 46.4V45.136H22.2991V54H20.0431V52.704C19.7551 53.12 19.3551 53.4667 18.8431 53.744C18.3417 54.0107 17.7604 54.144 17.0991 54.144C16.3524 54.144 15.6697 53.952 15.0511 53.568C14.4431 53.184 13.9577 52.6453 13.5951 51.952C13.2431 51.248 13.0671 50.4427 13.0671 49.536ZM20.0431 49.568C20.0431 49.024 19.9364 48.56 19.7231 48.176C19.5097 47.7813 19.2217 47.4827 18.8591 47.28C18.4964 47.0667 18.1071 46.96 17.6911 46.96C17.2751 46.96 16.8911 47.0613 16.5391 47.264C16.1871 47.4667 15.8991 47.7653 15.6751 48.16C15.4617 48.544 15.3551 49.0027 15.3551 49.536C15.3551 50.0693 15.4617 50.5387 15.6751 50.944C15.8991 51.3387 16.1871 51.6427 16.5391 51.856C16.9017 52.0693 17.2857 52.176 17.6911 52.176C18.1071 52.176 18.4964 52.0747 18.8591 51.872C19.2217 51.6587 19.5097 51.36 19.7231 50.976C19.9364 50.5813 20.0431 50.112 20.0431 49.568ZM29.3988 45.008C30.4548 45.008 31.3081 45.344 31.9588 46.016C32.6095 46.6773 32.9348 47.6053 32.9348 48.8V54H30.6948V49.104C30.6948 48.4 30.5188 47.8613 30.1668 47.488C29.8148 47.104 29.3348 46.912 28.7268 46.912C28.1081 46.912 27.6175 47.104 27.2548 47.488C26.9028 47.8613 26.7268 48.4 26.7268 49.104V54H24.4868V45.136H26.7268V46.24C27.0255 45.856 27.4041 45.5573 27.8628 45.344C28.3321 45.12 28.8441 45.008 29.3988 45.008ZM34.4889 49.536C34.4889 48.64 34.6649 47.8453 35.0169 47.152C35.3796 46.4587 35.8703 45.9253 36.4889 45.552C37.1076 45.1787 37.7956 44.992 38.5529 44.992C39.1289 44.992 39.6783 45.12 40.2009 45.376C40.7236 45.6213 41.1396 45.952 41.4489 46.368V42.16H43.7209V54H41.4489V52.688C41.1716 53.1253 40.7823 53.4773 40.2809 53.744C39.7796 54.0107 39.1983 54.144 38.5369 54.144C37.7903 54.144 37.1076 53.952 36.4889 53.568C35.8703 53.184 35.3796 52.6453 35.0169 51.952C34.6649 51.248 34.4889 50.4427 34.4889 49.536ZM41.4649 49.568C41.4649 49.024 41.3583 48.56 41.1449 48.176C40.9316 47.7813 40.6436 47.4827 40.2809 47.28C39.9183 47.0667 39.5289 46.96 39.1129 46.96C38.6969 46.96 38.3129 47.0613 37.9609 47.264C37.6089 47.4667 37.3209 47.7653 37.0969 48.16C36.8836 48.544 36.7769 49.0027 36.7769 49.536C36.7769 50.0693 36.8836 50.5387 37.0969 50.944C37.3209 51.3387 37.6089 51.6427 37.9609 51.856C38.3236 52.0693 38.7076 52.176 39.1129 52.176C39.5289 52.176 39.9183 52.0747 40.2809 51.872C40.6436 51.6587 40.9316 51.36 41.1449 50.976C41.3583 50.5813 41.4649 50.112 41.4649 49.568ZM47.0447 44.08C46.65 44.08 46.3194 43.9573 46.0527 43.712C45.7967 43.456 45.6687 43.1413 45.6687 42.768C45.6687 42.3947 45.7967 42.0853 46.0527 41.84C46.3194 41.584 46.65 41.456 47.0447 41.456C47.4394 41.456 47.7647 41.584 48.0207 41.84C48.2874 42.0853 48.4207 42.3947 48.4207 42.768C48.4207 43.1413 48.2874 43.456 48.0207 43.712C47.7647 43.9573 47.4394 44.08 47.0447 44.08ZM48.1487 45.136V54H45.9087V45.136H48.1487ZM49.7858 49.536C49.7858 48.64 49.9618 47.8453 50.3138 47.152C50.6765 46.4587 51.1671 45.9253 51.7858 45.552C52.4045 45.1787 53.0925 44.992 53.8498 44.992C54.4258 44.992 54.9751 45.12 55.4978 45.376C56.0205 45.6213 56.4365 45.952 56.7458 46.368V42.16H59.0178V54H56.7458V52.688C56.4685 53.1253 56.0791 53.4773 55.5778 53.744C55.0765 54.0107 54.4951 54.144 53.8338 54.144C53.0871 54.144 52.4045 53.952 51.7858 53.568C51.1671 53.184 50.6765 52.6453 50.3138 51.952C49.9618 51.248 49.7858 50.4427 49.7858 49.536ZM56.7618 49.568C56.7618 49.024 56.6551 48.56 56.4418 48.176C56.2285 47.7813 55.9405 47.4827 55.5778 47.28C55.2151 47.0667 54.8258 46.96 54.4098 46.96C53.9938 46.96 53.6098 47.0613 53.2578 47.264C52.9058 47.4667 52.6178 47.7653 52.3938 48.16C52.1805 48.544 52.0738 49.0027 52.0738 49.536C52.0738 50.0693 52.1805 50.5387 52.3938 50.944C52.6178 51.3387 52.9058 51.6427 53.2578 51.856C53.6205 52.0693 54.0045 52.176 54.4098 52.176C54.8258 52.176 55.2151 52.0747 55.5778 51.872C55.9405 51.6587 56.2285 51.36 56.4418 50.976C56.6551 50.5813 56.7618 50.112 56.7618 49.568ZM60.6296 49.536C60.6296 48.64 60.8056 47.8453 61.1576 47.152C61.5202 46.4587 62.0056 45.9253 62.6136 45.552C63.2322 45.1787 63.9202 44.992 64.6776 44.992C65.3389 44.992 65.9149 45.1253 66.4056 45.392C66.9069 45.6587 67.3069 45.9947 67.6056 46.4V45.136H69.8616V54H67.6056V52.704C67.3176 53.12 66.9176 53.4667 66.4056 53.744C65.9042 54.0107 65.3229 54.144 64.6616 54.144C63.9149 54.144 63.2322 53.952 62.6136 53.568C62.0056 53.184 61.5202 52.6453 61.1576 51.952C60.8056 51.248 60.6296 50.4427 60.6296 49.536ZM67.6056 49.568C67.6056 49.024 67.4989 48.56 67.2856 48.176C67.0722 47.7813 66.7842 47.4827 66.4216 47.28C66.0589 47.0667 65.6696 46.96 65.2536 46.96C64.8376 46.96 64.4536 47.0613 64.1016 47.264C63.7496 47.4667 63.4616 47.7653 63.2376 48.16C63.0242 48.544 62.9176 49.0027 62.9176 49.536C62.9176 50.0693 63.0242 50.5387 63.2376 50.944C63.4616 51.3387 63.7496 51.6427 64.1016 51.856C64.4642 52.0693 64.8482 52.176 65.2536 52.176C65.6696 52.176 66.0589 52.0747 66.4216 51.872C66.7842 51.6587 67.0722 51.36 67.2856 50.976C67.4989 50.5813 67.6056 50.112 67.6056 49.568ZM74.6573 46.976V51.264C74.6573 51.5627 74.7266 51.7813 74.8653 51.92C75.0146 52.048 75.26 52.112 75.6013 52.112H76.6413V54H75.2333C73.3453 54 72.4013 53.0827 72.4013 51.248V46.976H71.3453V45.136H72.4013V42.944H74.6573V45.136H76.6413V46.976H74.6573ZM86.4924 49.376C86.4924 49.696 86.4711 49.984 86.4284 50.24H79.9484C80.0018 50.88 80.2258 51.3813 80.6204 51.744C81.0151 52.1067 81.5004 52.288 82.0764 52.288C82.9084 52.288 83.5004 51.9307 83.8524 51.216H86.2684C86.0124 52.0693 85.5218 52.7733 84.7964 53.328C84.0711 53.872 83.1804 54.144 82.1244 54.144C81.2711 54.144 80.5031 53.9573 79.8204 53.584C79.1484 53.2 78.6204 52.6613 78.2364 51.968C77.8631 51.2747 77.6764 50.4747 77.6764 49.568C77.6764 48.6507 77.8631 47.8453 78.2364 47.152C78.6098 46.4587 79.1324 45.9253 79.8044 45.552C80.4764 45.1787 81.2498 44.992 82.1244 44.992C82.9671 44.992 83.7191 45.1733 84.3804 45.536C85.0524 45.8987 85.5698 46.416 85.9324 47.088C86.3058 47.7493 86.4924 48.512 86.4924 49.376ZM84.1724 48.736C84.1618 48.16 83.9538 47.7013 83.5484 47.36C83.1431 47.008 82.6471 46.832 82.0604 46.832C81.5058 46.832 81.0364 47.0027 80.6524 47.344C80.2791 47.6747 80.0498 48.1387 79.9644 48.736H84.1724ZM91.5194 54.144C90.7941 54.144 90.1434 54.016 89.5674 53.76C88.9914 53.4933 88.5328 53.136 88.1914 52.688C87.8608 52.24 87.6794 51.744 87.6474 51.2H89.9034C89.9461 51.5413 90.1114 51.824 90.3994 52.048C90.6981 52.272 91.0661 52.384 91.5034 52.384C91.9301 52.384 92.2608 52.2987 92.4954 52.128C92.7408 51.9573 92.8634 51.7387 92.8634 51.472C92.8634 51.184 92.7141 50.9707 92.4154 50.832C92.1274 50.6827 91.6634 50.5227 91.0234 50.352C90.3621 50.192 89.8181 50.0267 89.3914 49.856C88.9754 49.6853 88.6128 49.424 88.3034 49.072C88.0048 48.72 87.8554 48.2453 87.8554 47.648C87.8554 47.1573 87.9941 46.7093 88.2714 46.304C88.5594 45.8987 88.9648 45.5787 89.4874 45.344C90.0208 45.1093 90.6448 44.992 91.3594 44.992C92.4154 44.992 93.2581 45.2587 93.8874 45.792C94.5168 46.3147 94.8634 47.024 94.9274 47.92H92.7834C92.7514 47.568 92.6021 47.2907 92.3354 47.088C92.0794 46.8747 91.7328 46.768 91.2954 46.768C90.8901 46.768 90.5754 46.8427 90.3514 46.992C90.1381 47.1413 90.0314 47.3493 90.0314 47.616C90.0314 47.9147 90.1808 48.144 90.4794 48.304C90.7781 48.4533 91.2421 48.608 91.8714 48.768C92.5114 48.928 93.0394 49.0933 93.4554 49.264C93.8714 49.4347 94.2288 49.7013 94.5274 50.064C94.8368 50.416 94.9968 50.8853 95.0074 51.472C95.0074 51.984 94.8634 52.4427 94.5754 52.848C94.2981 53.2533 93.8928 53.5733 93.3594 53.808C92.8368 54.032 92.2234 54.144 91.5194 54.144Z" fill="#CFD8DC"/>
<path d="M0.817813 48.4C0.817813 47.3013 1.06315 46.32 1.55381 45.456C2.05515 44.5813 2.73248 43.904 3.58581 43.424C4.44981 42.9333 5.41515 42.688 6.48181 42.688C7.72981 42.688 8.82315 43.008 9.76181 43.648C10.7005 44.288 11.3565 45.1733 11.7298 46.304H9.15381C8.89781 45.7707 8.53515 45.3707 8.06581 45.104C7.60715 44.8373 7.07381 44.704 6.46581 44.704C5.81515 44.704 5.23381 44.8587 4.72181 45.168C4.22048 45.4667 3.82581 45.8933 3.53781 46.448C3.26048 47.0027 3.12181 47.6533 3.12181 48.4C3.12181 49.136 3.26048 49.7867 3.53781 50.352C3.82581 50.9067 4.22048 51.3387 4.72181 51.648C5.23381 51.9467 5.81515 52.096 6.46581 52.096C7.07381 52.096 7.60715 51.9627 8.06581 51.696C8.53515 51.4187 8.89781 51.0133 9.15381 50.48H11.7298C11.3565 51.6213 10.7005 52.512 9.76181 53.152C8.83381 53.7813 7.74048 54.096 6.48181 54.096C5.41515 54.096 4.44981 53.856 3.58581 53.376C2.73248 52.8853 2.05515 52.208 1.55381 51.344C1.06315 50.48 0.817813 49.4987 0.817813 48.4ZM13.0671 49.536C13.0671 48.64 13.2431 47.8453 13.5951 47.152C13.9577 46.4587 14.4431 45.9253 15.0511 45.552C15.6697 45.1787 16.3577 44.992 17.1151 44.992C17.7764 44.992 18.3524 45.1253 18.8431 45.392C19.3444 45.6587 19.7444 45.9947 20.0431 46.4V45.136H22.2991V54H20.0431V52.704C19.7551 53.12 19.3551 53.4667 18.8431 53.744C18.3417 54.0107 17.7604 54.144 17.0991 54.144C16.3524 54.144 15.6697 53.952 15.0511 53.568C14.4431 53.184 13.9577 52.6453 13.5951 51.952C13.2431 51.248 13.0671 50.4427 13.0671 49.536ZM20.0431 49.568C20.0431 49.024 19.9364 48.56 19.7231 48.176C19.5097 47.7813 19.2217 47.4827 18.8591 47.28C18.4964 47.0667 18.1071 46.96 17.6911 46.96C17.2751 46.96 16.8911 47.0613 16.5391 47.264C16.1871 47.4667 15.8991 47.7653 15.6751 48.16C15.4617 48.544 15.3551 49.0027 15.3551 49.536C15.3551 50.0693 15.4617 50.5387 15.6751 50.944C15.8991 51.3387 16.1871 51.6427 16.5391 51.856C16.9017 52.0693 17.2857 52.176 17.6911 52.176C18.1071 52.176 18.4964 52.0747 18.8591 51.872C19.2217 51.6587 19.5097 51.36 19.7231 50.976C19.9364 50.5813 20.0431 50.112 20.0431 49.568ZM29.3988 45.008C30.4548 45.008 31.3081 45.344 31.9588 46.016C32.6095 46.6773 32.9348 47.6053 32.9348 48.8V54H30.6948V49.104C30.6948 48.4 30.5188 47.8613 30.1668 47.488C29.8148 47.104 29.3348 46.912 28.7268 46.912C28.1081 46.912 27.6175 47.104 27.2548 47.488C26.9028 47.8613 26.7268 48.4 26.7268 49.104V54H24.4868V45.136H26.7268V46.24C27.0255 45.856 27.4041 45.5573 27.8628 45.344C28.3321 45.12 28.8441 45.008 29.3988 45.008ZM34.4889 49.536C34.4889 48.64 34.6649 47.8453 35.0169 47.152C35.3796 46.4587 35.8703 45.9253 36.4889 45.552C37.1076 45.1787 37.7956 44.992 38.5529 44.992C39.1289 44.992 39.6783 45.12 40.2009 45.376C40.7236 45.6213 41.1396 45.952 41.4489 46.368V42.16H43.7209V54H41.4489V52.688C41.1716 53.1253 40.7823 53.4773 40.2809 53.744C39.7796 54.0107 39.1983 54.144 38.5369 54.144C37.7903 54.144 37.1076 53.952 36.4889 53.568C35.8703 53.184 35.3796 52.6453 35.0169 51.952C34.6649 51.248 34.4889 50.4427 34.4889 49.536ZM41.4649 49.568C41.4649 49.024 41.3583 48.56 41.1449 48.176C40.9316 47.7813 40.6436 47.4827 40.2809 47.28C39.9183 47.0667 39.5289 46.96 39.1129 46.96C38.6969 46.96 38.3129 47.0613 37.9609 47.264C37.6089 47.4667 37.3209 47.7653 37.0969 48.16C36.8836 48.544 36.7769 49.0027 36.7769 49.536C36.7769 50.0693 36.8836 50.5387 37.0969 50.944C37.3209 51.3387 37.6089 51.6427 37.9609 51.856C38.3236 52.0693 38.7076 52.176 39.1129 52.176C39.5289 52.176 39.9183 52.0747 40.2809 51.872C40.6436 51.6587 40.9316 51.36 41.1449 50.976C41.3583 50.5813 41.4649 50.112 41.4649 49.568ZM47.0447 44.08C46.65 44.08 46.3194 43.9573 46.0527 43.712C45.7967 43.456 45.6687 43.1413 45.6687 42.768C45.6687 42.3947 45.7967 42.0853 46.0527 41.84C46.3194 41.584 46.65 41.456 47.0447 41.456C47.4394 41.456 47.7647 41.584 48.0207 41.84C48.2874 42.0853 48.4207 42.3947 48.4207 42.768C48.4207 43.1413 48.2874 43.456 48.0207 43.712C47.7647 43.9573 47.4394 44.08 47.0447 44.08ZM48.1487 45.136V54H45.9087V45.136H48.1487ZM49.7858 49.536C49.7858 48.64 49.9618 47.8453 50.3138 47.152C50.6765 46.4587 51.1671 45.9253 51.7858 45.552C52.4045 45.1787 53.0925 44.992 53.8498 44.992C54.4258 44.992 54.9751 45.12 55.4978 45.376C56.0205 45.6213 56.4365 45.952 56.7458 46.368V42.16H59.0178V54H56.7458V52.688C56.4685 53.1253 56.0791 53.4773 55.5778 53.744C55.0765 54.0107 54.4951 54.144 53.8338 54.144C53.0871 54.144 52.4045 53.952 51.7858 53.568C51.1671 53.184 50.6765 52.6453 50.3138 51.952C49.9618 51.248 49.7858 50.4427 49.7858 49.536ZM56.7618 49.568C56.7618 49.024 56.6551 48.56 56.4418 48.176C56.2285 47.7813 55.9405 47.4827 55.5778 47.28C55.2151 47.0667 54.8258 46.96 54.4098 46.96C53.9938 46.96 53.6098 47.0613 53.2578 47.264C52.9058 47.4667 52.6178 47.7653 52.3938 48.16C52.1805 48.544 52.0738 49.0027 52.0738 49.536C52.0738 50.0693 52.1805 50.5387 52.3938 50.944C52.6178 51.3387 52.9058 51.6427 53.2578 51.856C53.6205 52.0693 54.0045 52.176 54.4098 52.176C54.8258 52.176 55.2151 52.0747 55.5778 51.872C55.9405 51.6587 56.2285 51.36 56.4418 50.976C56.6551 50.5813 56.7618 50.112 56.7618 49.568ZM60.6296 49.536C60.6296 48.64 60.8056 47.8453 61.1576 47.152C61.5202 46.4587 62.0056 45.9253 62.6136 45.552C63.2322 45.1787 63.9202 44.992 64.6776 44.992C65.3389 44.992 65.9149 45.1253 66.4056 45.392C66.9069 45.6587 67.3069 45.9947 67.6056 46.4V45.136H69.8616V54H67.6056V52.704C67.3176 53.12 66.9176 53.4667 66.4056 53.744C65.9042 54.0107 65.3229 54.144 64.6616 54.144C63.9149 54.144 63.2322 53.952 62.6136 53.568C62.0056 53.184 61.5202 52.6453 61.1576 51.952C60.8056 51.248 60.6296 50.4427 60.6296 49.536ZM67.6056 49.568C67.6056 49.024 67.4989 48.56 67.2856 48.176C67.0722 47.7813 66.7842 47.4827 66.4216 47.28C66.0589 47.0667 65.6696 46.96 65.2536 46.96C64.8376 46.96 64.4536 47.0613 64.1016 47.264C63.7496 47.4667 63.4616 47.7653 63.2376 48.16C63.0242 48.544 62.9176 49.0027 62.9176 49.536C62.9176 50.0693 63.0242 50.5387 63.2376 50.944C63.4616 51.3387 63.7496 51.6427 64.1016 51.856C64.4642 52.0693 64.8482 52.176 65.2536 52.176C65.6696 52.176 66.0589 52.0747 66.4216 51.872C66.7842 51.6587 67.0722 51.36 67.2856 50.976C67.4989 50.5813 67.6056 50.112 67.6056 49.568ZM74.6573 46.976V51.264C74.6573 51.5627 74.7266 51.7813 74.8653 51.92C75.0146 52.048 75.26 52.112 75.6013 52.112H76.6413V54H75.2333C73.3453 54 72.4013 53.0827 72.4013 51.248V46.976H71.3453V45.136H72.4013V42.944H74.6573V45.136H76.6413V46.976H74.6573ZM86.4924 49.376C86.4924 49.696 86.4711 49.984 86.4284 50.24H79.9484C80.0018 50.88 80.2258 51.3813 80.6204 51.744C81.0151 52.1067 81.5004 52.288 82.0764 52.288C82.9084 52.288 83.5004 51.9307 83.8524 51.216H86.2684C86.0124 52.0693 85.5218 52.7733 84.7964 53.328C84.0711 53.872 83.1804 54.144 82.1244 54.144C81.2711 54.144 80.5031 53.9573 79.8204 53.584C79.1484 53.2 78.6204 52.6613 78.2364 51.968C77.8631 51.2747 77.6764 50.4747 77.6764 49.568C77.6764 48.6507 77.8631 47.8453 78.2364 47.152C78.6098 46.4587 79.1324 45.9253 79.8044 45.552C80.4764 45.1787 81.2498 44.992 82.1244 44.992C82.9671 44.992 83.7191 45.1733 84.3804 45.536C85.0524 45.8987 85.5698 46.416 85.9324 47.088C86.3058 47.7493 86.4924 48.512 86.4924 49.376ZM84.1724 48.736C84.1618 48.16 83.9538 47.7013 83.5484 47.36C83.1431 47.008 82.6471 46.832 82.0604 46.832C81.5058 46.832 81.0364 47.0027 80.6524 47.344C80.2791 47.6747 80.0498 48.1387 79.9644 48.736H84.1724ZM91.5194 54.144C90.7941 54.144 90.1434 54.016 89.5674 53.76C88.9914 53.4933 88.5328 53.136 88.1914 52.688C87.8608 52.24 87.6794 51.744 87.6474 51.2H89.9034C89.9461 51.5413 90.1114 51.824 90.3994 52.048C90.6981 52.272 91.0661 52.384 91.5034 52.384C91.9301 52.384 92.2608 52.2987 92.4954 52.128C92.7408 51.9573 92.8634 51.7387 92.8634 51.472C92.8634 51.184 92.7141 50.9707 92.4154 50.832C92.1274 50.6827 91.6634 50.5227 91.0234 50.352C90.3621 50.192 89.8181 50.0267 89.3914 49.856C88.9754 49.6853 88.6128 49.424 88.3034 49.072C88.0048 48.72 87.8554 48.2453 87.8554 47.648C87.8554 47.1573 87.9941 46.7093 88.2714 46.304C88.5594 45.8987 88.9648 45.5787 89.4874 45.344C90.0208 45.1093 90.6448 44.992 91.3594 44.992C92.4154 44.992 93.2581 45.2587 93.8874 45.792C94.5168 46.3147 94.8634 47.024 94.9274 47.92H92.7834C92.7514 47.568 92.6021 47.2907 92.3354 47.088C92.0794 46.8747 91.7328 46.768 91.2954 46.768C90.8901 46.768 90.5754 46.8427 90.3514 46.992C90.1381 47.1413 90.0314 47.3493 90.0314 47.616C90.0314 47.9147 90.1808 48.144 90.4794 48.304C90.7781 48.4533 91.2421 48.608 91.8714 48.768C92.5114 48.928 93.0394 49.0933 93.4554 49.264C93.8714 49.4347 94.2288 49.7013 94.5274 50.064C94.8368 50.416 94.9968 50.8853 95.0074 51.472C95.0074 51.984 94.8634 52.4427 94.5754 52.848C94.2981 53.2533 93.8928 53.5733 93.3594 53.808C92.8368 54.032 92.2234 54.144 91.5194 54.144Z" fill="#F0F7FF"/>
<g filter="url(#filter0_ii_10_816)">
<path d="M52.8954 17.4533C55.3052 17.4533 57.2588 19.4068 57.2588 21.8166L57.2565 23.9935C57.5557 29.3358 53.441 32 45.8106 32C38.2048 32 34 29.3707 34 24.0697V21.8166C34 19.4068 35.9535 17.4533 38.3633 17.4533H52.8954ZM64.5327 17.4533C66.9425 17.4533 68.896 19.4068 68.896 21.8166L68.8938 23.3483C69.1568 28.1406 65.5211 30.5432 58.8755 30.5432C57.8793 30.5432 57.4164 29.2838 57.8703 28.397C58.4352 27.2931 58.7286 26.0078 58.7269 24.5409L58.7086 23.9121L58.7132 21.8166C58.7132 20.0976 59.9593 17.4526 61.6783 17.4528L64.5327 17.4533ZM45.6355 0C49.6525 0 52.9089 3.2564 52.9089 7.27337C52.9089 11.2903 49.6525 14.5467 45.6355 14.5467C41.6185 14.5467 38.3621 11.2903 38.3621 7.27337C38.3621 3.2564 41.6185 0 45.6355 0ZM60.1799 2.90888C63.3929 2.90888 65.9976 5.51357 65.9976 8.72663C65.9976 11.9397 63.3929 14.5444 60.1799 14.5444C56.9668 14.5444 54.3621 11.9397 54.3621 8.72663C54.3621 5.51357 56.9668 2.90888 60.1799 2.90888Z" fill="#CFD8DC"/>
<path d="M52.8954 17.4533C55.3052 17.4533 57.2588 19.4068 57.2588 21.8166L57.2565 23.9935C57.5557 29.3358 53.441 32 45.8106 32C38.2048 32 34 29.3707 34 24.0697V21.8166C34 19.4068 35.9535 17.4533 38.3633 17.4533H52.8954ZM64.5327 17.4533C66.9425 17.4533 68.896 19.4068 68.896 21.8166L68.8938 23.3483C69.1568 28.1406 65.5211 30.5432 58.8755 30.5432C57.8793 30.5432 57.4164 29.2838 57.8703 28.397C58.4352 27.2931 58.7286 26.0078 58.7269 24.5409L58.7086 23.9121L58.7132 21.8166C58.7132 20.0976 59.9593 17.4526 61.6783 17.4528L64.5327 17.4533ZM45.6355 0C49.6525 0 52.9089 3.2564 52.9089 7.27337C52.9089 11.2903 49.6525 14.5467 45.6355 14.5467C41.6185 14.5467 38.3621 11.2903 38.3621 7.27337C38.3621 3.2564 41.6185 0 45.6355 0ZM60.1799 2.90888C63.3929 2.90888 65.9976 5.51357 65.9976 8.72663C65.9976 11.9397 63.3929 14.5444 60.1799 14.5444C56.9668 14.5444 54.3621 11.9397 54.3621 8.72663C54.3621 5.51357 56.9668 2.90888 60.1799 2.90888Z" fill="#F0F7FF"/>
</g>
<defs>
<filter id="filter0_ii_10_816" x="30" y="-4" width="42.9072" height="40" filterUnits="userSpaceOnUse" color-interpolation-filters="sRGB">
<feFlood flood-opacity="0" result="BackgroundImageFix"/>
<feBlend mode="normal" in="SourceGraphic" in2="BackgroundImageFix" result="shape"/>
<feColorMatrix in="SourceAlpha" type="matrix" values="0 0 0 0 0 0 0 0 0 0 0 0 0 0 0 0 0 0 127 0" result="hardAlpha"/>
<feOffset dx="4" dy="4"/>
<feGaussianBlur stdDeviation="6"/>
<feComposite in2="hardAlpha" operator="arithmetic" k2="-1" k3="1"/>
<feColorMatrix type="matrix" values="0 0 0 0 0.733333 0 0 0 0 0.764706 0 0 0 0 0.807843 0 0 0 0.6 0"/>
<feBlend mode="normal" in2="shape" result="effect1_innerShadow_10_816"/>
<feColorMatrix in="SourceAlpha" type="matrix" values="0 0 0 0 0 0 0 0 0 0 0 0 0 0 0 0 0 0 127 0" result="hardAlpha"/>
<feOffset dx="-4" dy="-4"/>
<feGaussianBlur stdDeviation="6"/>
<feComposite in2="hardAlpha" operator="arithmetic" k2="-1" k3="1"/>
<feColorMatrix type="matrix" values="0 0 0 0 0.992157 0 0 0 0 1 0 0 0 0 1 0 0 0 0.8 0"/>
<feBlend mode="normal" in2="effect1_innerShadow_10_816" result="effect2_innerShadow_10_816"/>
</filter>
</defs>
</svg>
