<svg width="49" height="60" viewBox="0 0 49 60" fill="none" xmlns="http://www.w3.org/2000/svg">
<path d="M10.7118 42.832V54H8.47175V49.248H3.68775V54H1.44775V42.832H3.68775V47.424H8.47175V42.832H10.7118ZM16.8525 54.144C15.9992 54.144 15.2312 53.9573 14.5485 53.584C13.8658 53.2 13.3272 52.6613 12.9325 51.968C12.5485 51.2747 12.3565 50.4747 12.3565 49.568C12.3565 48.6613 12.5538 47.8613 12.9485 47.168C13.3538 46.4747 13.9032 45.9413 14.5965 45.568C15.2898 45.184 16.0632 44.992 16.9165 44.992C17.7698 44.992 18.5432 45.184 19.2365 45.568C19.9298 45.9413 20.4738 46.4747 20.8685 47.168C21.2738 47.8613 21.4765 48.6613 21.4765 49.568C21.4765 50.4747 21.2685 51.2747 20.8525 51.968C20.4472 52.6613 19.8925 53.2 19.1885 53.584C18.4952 53.9573 17.7165 54.144 16.8525 54.144ZM16.8525 52.192C17.2578 52.192 17.6365 52.096 17.9885 51.904C18.3512 51.7013 18.6392 51.4027 18.8525 51.008C19.0658 50.6133 19.1725 50.1333 19.1725 49.568C19.1725 48.7253 18.9485 48.08 18.5005 47.632C18.0632 47.1733 17.5245 46.944 16.8845 46.944C16.2445 46.944 15.7058 47.1733 15.2685 47.632C14.8418 48.08 14.6285 48.7253 14.6285 49.568C14.6285 50.4107 14.8365 51.0613 15.2525 51.52C15.6792 51.968 16.2125 52.192 16.8525 52.192ZM34.1276 45.008C35.2156 45.008 36.0903 45.344 36.7516 46.016C37.4236 46.6773 37.7596 47.6053 37.7596 48.8V54H35.5196V49.104C35.5196 48.4107 35.3436 47.8827 34.9916 47.52C34.6396 47.1467 34.1596 46.96 33.5516 46.96C32.9436 46.96 32.4583 47.1467 32.0956 47.52C31.7436 47.8827 31.5676 48.4107 31.5676 49.104V54H29.3276V49.104C29.3276 48.4107 29.1516 47.8827 28.7996 47.52C28.4476 47.1467 27.9676 46.96 27.3596 46.96C26.741 46.96 26.2503 47.1467 25.8876 47.52C25.5356 47.8827 25.3596 48.4107 25.3596 49.104V54H23.1196V45.136H25.3596V46.208C25.6476 45.8347 26.0156 45.5413 26.4636 45.328C26.9223 45.1147 27.4236 45.008 27.9676 45.008C28.661 45.008 29.2796 45.1573 29.8236 45.456C30.3676 45.744 30.789 46.16 31.0876 46.704C31.3756 46.192 31.7916 45.7813 32.3356 45.472C32.8903 45.1627 33.4876 45.008 34.1276 45.008ZM48.1253 49.376C48.1253 49.696 48.1039 49.984 48.0613 50.24H41.5813C41.6346 50.88 41.8586 51.3813 42.2533 51.744C42.6479 52.1067 43.1333 52.288 43.7093 52.288C44.5413 52.288 45.1333 51.9307 45.4853 51.216H47.9013C47.6453 52.0693 47.1546 52.7733 46.4293 53.328C45.7039 53.872 44.8133 54.144 43.7573 54.144C42.9039 54.144 42.1359 53.9573 41.4533 53.584C40.7813 53.2 40.2533 52.6613 39.8693 51.968C39.4959 51.2747 39.3092 50.4747 39.3092 49.568C39.3092 48.6507 39.4959 47.8453 39.8693 47.152C40.2426 46.4587 40.7653 45.9253 41.4373 45.552C42.1093 45.1787 42.8826 44.992 43.7573 44.992C44.5999 44.992 45.3519 45.1733 46.0133 45.536C46.6853 45.8987 47.2026 46.416 47.5653 47.088C47.9386 47.7493 48.1253 48.512 48.1253 49.376ZM45.8053 48.736C45.7946 48.16 45.5866 47.7013 45.1813 47.36C44.7759 47.008 44.2799 46.832 43.6933 46.832C43.1386 46.832 42.6693 47.0027 42.2853 47.344C41.9119 47.6747 41.6826 48.1387 41.5973 48.736H45.8053Z" fill="#CFD8DC"/>
<path d="M10.7118 42.832V54H8.47175V49.248H3.68775V54H1.44775V42.832H3.68775V47.424H8.47175V42.832H10.7118ZM16.8525 54.144C15.9992 54.144 15.2312 53.9573 14.5485 53.584C13.8658 53.2 13.3272 52.6613 12.9325 51.968C12.5485 51.2747 12.3565 50.4747 12.3565 49.568C12.3565 48.6613 12.5538 47.8613 12.9485 47.168C13.3538 46.4747 13.9032 45.9413 14.5965 45.568C15.2898 45.184 16.0632 44.992 16.9165 44.992C17.7698 44.992 18.5432 45.184 19.2365 45.568C19.9298 45.9413 20.4738 46.4747 20.8685 47.168C21.2738 47.8613 21.4765 48.6613 21.4765 49.568C21.4765 50.4747 21.2685 51.2747 20.8525 51.968C20.4472 52.6613 19.8925 53.2 19.1885 53.584C18.4952 53.9573 17.7165 54.144 16.8525 54.144ZM16.8525 52.192C17.2578 52.192 17.6365 52.096 17.9885 51.904C18.3512 51.7013 18.6392 51.4027 18.8525 51.008C19.0658 50.6133 19.1725 50.1333 19.1725 49.568C19.1725 48.7253 18.9485 48.08 18.5005 47.632C18.0632 47.1733 17.5245 46.944 16.8845 46.944C16.2445 46.944 15.7058 47.1733 15.2685 47.632C14.8418 48.08 14.6285 48.7253 14.6285 49.568C14.6285 50.4107 14.8365 51.0613 15.2525 51.52C15.6792 51.968 16.2125 52.192 16.8525 52.192ZM34.1276 45.008C35.2156 45.008 36.0903 45.344 36.7516 46.016C37.4236 46.6773 37.7596 47.6053 37.7596 48.8V54H35.5196V49.104C35.5196 48.4107 35.3436 47.8827 34.9916 47.52C34.6396 47.1467 34.1596 46.96 33.5516 46.96C32.9436 46.96 32.4583 47.1467 32.0956 47.52C31.7436 47.8827 31.5676 48.4107 31.5676 49.104V54H29.3276V49.104C29.3276 48.4107 29.1516 47.8827 28.7996 47.52C28.4476 47.1467 27.9676 46.96 27.3596 46.96C26.741 46.96 26.2503 47.1467 25.8876 47.52C25.5356 47.8827 25.3596 48.4107 25.3596 49.104V54H23.1196V45.136H25.3596V46.208C25.6476 45.8347 26.0156 45.5413 26.4636 45.328C26.9223 45.1147 27.4236 45.008 27.9676 45.008C28.661 45.008 29.2796 45.1573 29.8236 45.456C30.3676 45.744 30.789 46.16 31.0876 46.704C31.3756 46.192 31.7916 45.7813 32.3356 45.472C32.8903 45.1627 33.4876 45.008 34.1276 45.008ZM48.1253 49.376C48.1253 49.696 48.1039 49.984 48.0613 50.24H41.5813C41.6346 50.88 41.8586 51.3813 42.2533 51.744C42.6479 52.1067 43.1333 52.288 43.7093 52.288C44.5413 52.288 45.1333 51.9307 45.4853 51.216H47.9013C47.6453 52.0693 47.1546 52.7733 46.4293 53.328C45.7039 53.872 44.8133 54.144 43.7573 54.144C42.9039 54.144 42.1359 53.9573 41.4533 53.584C40.7813 53.2 40.2533 52.6613 39.8693 51.968C39.4959 51.2747 39.3092 50.4747 39.3092 49.568C39.3092 48.6507 39.4959 47.8453 39.8693 47.152C40.2426 46.4587 40.7653 45.9253 41.4373 45.552C42.1093 45.1787 42.8826 44.992 43.7573 44.992C44.5999 44.992 45.3519 45.1733 46.0133 45.536C46.6853 45.8987 47.2026 46.416 47.5653 47.088C47.9386 47.7493 48.1253 48.512 48.1253 49.376ZM45.8053 48.736C45.7946 48.16 45.5866 47.7013 45.1813 47.36C44.7759 47.008 44.2799 46.832 43.6933 46.832C43.1386 46.832 42.6693 47.0027 42.2853 47.344C41.9119 47.6747 41.6826 48.1387 41.5973 48.736H45.8053Z" fill="#E6EEF8"/>
<g filter="url(#filter0_ii_10_792)">
<path d="M26.4453 0.672252C25.4972 -0.224084 24.0142 -0.224084 23.0662 0.672252L11.1546 11.9342C10.4176 12.631 10 13.6005 10 14.6147V28.3111C10 30.3483 11.6516 32 13.6889 32H17.3779C19.4152 32 21.0668 30.3483 21.0668 28.3111V22.1629C21.0668 21.4838 21.6173 20.9333 22.2964 20.9333H27.215C27.8941 20.9333 28.4447 21.4838 28.4447 22.1629V28.3111C28.4447 30.3483 30.0963 32 32.1336 32H35.8225C37.8598 32 39.5114 30.3483 39.5114 28.3111V14.6147C39.5114 13.6005 39.0939 12.631 38.3568 11.9342L26.4453 0.672252Z" fill="#CFD8DC"/>
<path d="M26.4453 0.672252C25.4972 -0.224084 24.0142 -0.224084 23.0662 0.672252L11.1546 11.9342C10.4176 12.631 10 13.6005 10 14.6147V28.3111C10 30.3483 11.6516 32 13.6889 32H17.3779C19.4152 32 21.0668 30.3483 21.0668 28.3111V22.1629C21.0668 21.4838 21.6173 20.9333 22.2964 20.9333H27.215C27.8941 20.9333 28.4447 21.4838 28.4447 22.1629V28.3111C28.4447 30.3483 30.0963 32 32.1336 32H35.8225C37.8598 32 39.5114 30.3483 39.5114 28.3111V14.6147C39.5114 13.6005 39.0939 12.631 38.3568 11.9342L26.4453 0.672252Z" fill="#E6EEF8"/>
</g>
<defs>
<filter id="filter0_ii_10_792" x="6" y="-4" width="37.5115" height="40" filterUnits="userSpaceOnUse" color-interpolation-filters="sRGB">
<feFlood flood-opacity="0" result="BackgroundImageFix"/>
<feBlend mode="normal" in="SourceGraphic" in2="BackgroundImageFix" result="shape"/>
<feColorMatrix in="SourceAlpha" type="matrix" values="0 0 0 0 0 0 0 0 0 0 0 0 0 0 0 0 0 0 127 0" result="hardAlpha"/>
<feOffset dx="4" dy="4"/>
<feGaussianBlur stdDeviation="6"/>
<feComposite in2="hardAlpha" operator="arithmetic" k2="-1" k3="1"/>
<feColorMatrix type="matrix" values="0 0 0 0 0.733333 0 0 0 0 0.764706 0 0 0 0 0.807843 0 0 0 0.6 0"/>
<feBlend mode="normal" in2="shape" result="effect1_innerShadow_10_792"/>
<feColorMatrix in="SourceAlpha" type="matrix" values="0 0 0 0 0 0 0 0 0 0 0 0 0 0 0 0 0 0 127 0" result="hardAlpha"/>
<feOffset dx="-4" dy="-4"/>
<feGaussianBlur stdDeviation="6"/>
<feComposite in2="hardAlpha" operator="arithmetic" k2="-1" k3="1"/>
<feColorMatrix type="matrix" values="0 0 0 0 0.992157 0 0 0 0 1 0 0 0 0 1 0 0 0 0.8 0"/>
<feBlend mode="normal" in2="effect1_innerShadow_10_792" result="effect2_innerShadow_10_792"/>
</filter>
</defs>
</svg>
