<svg width="39" height="60" viewBox="0 0 39 60" fill="none" xmlns="http://www.w3.org/2000/svg">
<path d="M7.67069 42.832V50.672C7.67069 51.76 7.35602 52.608 6.72669 53.216C6.09735 53.8133 5.25469 54.112 4.19869 54.112C3.13202 54.112 2.26802 53.8027 1.60669 53.184C0.956021 52.5653 0.630688 51.7013 0.630688 50.592H2.87069C2.88135 51.072 2.99335 51.4453 3.20669 51.712C3.43069 51.9787 3.75069 52.112 4.16669 52.112C4.57202 52.112 4.88135 51.984 5.09469 51.728C5.30802 51.472 5.41469 51.12 5.41469 50.672V42.832H7.67069ZM14.2197 54.144C13.3664 54.144 12.5984 53.9573 11.9157 53.584C11.233 53.2 10.6944 52.6613 10.2997 51.968C9.91569 51.2747 9.72369 50.4747 9.72369 49.568C9.72369 48.6613 9.92102 47.8613 10.3157 47.168C10.721 46.4747 11.2704 45.9413 11.9637 45.568C12.657 45.184 13.4304 44.992 14.2837 44.992C15.137 44.992 15.9104 45.184 16.6037 45.568C17.297 45.9413 17.841 46.4747 18.2357 47.168C18.641 47.8613 18.8437 48.6613 18.8437 49.568C18.8437 50.4747 18.6357 51.2747 18.2197 51.968C17.8144 52.6613 17.2597 53.2 16.5557 53.584C15.8624 53.9573 15.0837 54.144 14.2197 54.144ZM14.2197 52.192C14.625 52.192 15.0037 52.096 15.3557 51.904C15.7184 51.7013 16.0064 51.4027 16.2197 51.008C16.433 50.6133 16.5397 50.1333 16.5397 49.568C16.5397 48.7253 16.3157 48.08 15.8677 47.632C15.4304 47.1733 14.8917 46.944 14.2517 46.944C13.6117 46.944 13.073 47.1733 12.6357 47.632C12.209 48.08 11.9957 48.7253 11.9957 49.568C11.9957 50.4107 12.2037 51.0613 12.6197 51.52C13.0464 51.968 13.5797 52.192 14.2197 52.192ZM22.7268 46.432C23.0148 46.0053 23.4095 45.6587 23.9108 45.392C24.4228 45.1253 25.0041 44.992 25.6548 44.992C26.4121 44.992 27.0948 45.1787 27.7028 45.552C28.3215 45.9253 28.8068 46.4587 29.1588 47.152C29.5215 47.8347 29.7028 48.6293 29.7028 49.536C29.7028 50.4427 29.5215 51.248 29.1588 51.952C28.8068 52.6453 28.3215 53.184 27.7028 53.568C27.0948 53.952 26.4121 54.144 25.6548 54.144C24.9935 54.144 24.4121 54.016 23.9108 53.76C23.4201 53.4933 23.0255 53.152 22.7268 52.736V54H20.4868V42.16H22.7268V46.432ZM27.4148 49.536C27.4148 49.0027 27.3028 48.544 27.0788 48.16C26.8655 47.7653 26.5775 47.4667 26.2148 47.264C25.8628 47.0613 25.4788 46.96 25.0628 46.96C24.6575 46.96 24.2735 47.0667 23.9108 47.28C23.5588 47.4827 23.2708 47.7813 23.0468 48.176C22.8335 48.5707 22.7268 49.0347 22.7268 49.568C22.7268 50.1013 22.8335 50.5653 23.0468 50.96C23.2708 51.3547 23.5588 51.6587 23.9108 51.872C24.2735 52.0747 24.6575 52.176 25.0628 52.176C25.4788 52.176 25.8628 52.0693 26.2148 51.856C26.5775 51.6427 26.8655 51.3387 27.0788 50.944C27.3028 50.5493 27.4148 50.08 27.4148 49.536ZM34.7226 54.144C33.9972 54.144 33.3466 54.016 32.7706 53.76C32.1946 53.4933 31.7359 53.136 31.3946 52.688C31.0639 52.24 30.8826 51.744 30.8506 51.2H33.1066C33.1492 51.5413 33.3146 51.824 33.6026 52.048C33.9012 52.272 34.2692 52.384 34.7066 52.384C35.1332 52.384 35.4639 52.2987 35.6986 52.128C35.9439 51.9573 36.0666 51.7387 36.0666 51.472C36.0666 51.184 35.9172 50.9707 35.6186 50.832C35.3306 50.6827 34.8666 50.5227 34.2266 50.352C33.5652 50.192 33.0212 50.0267 32.5946 49.856C32.1786 49.6853 31.8159 49.424 31.5066 49.072C31.2079 48.72 31.0586 48.2453 31.0586 47.648C31.0586 47.1573 31.1972 46.7093 31.4746 46.304C31.7626 45.8987 32.1679 45.5787 32.6906 45.344C33.2239 45.1093 33.8479 44.992 34.5626 44.992C35.6186 44.992 36.4612 45.2587 37.0906 45.792C37.7199 46.3147 38.0666 47.024 38.1306 47.92H35.9866C35.9546 47.568 35.8052 47.2907 35.5386 47.088C35.2826 46.8747 34.9359 46.768 34.4986 46.768C34.0932 46.768 33.7786 46.8427 33.5546 46.992C33.3412 47.1413 33.2346 47.3493 33.2346 47.616C33.2346 47.9147 33.3839 48.144 33.6826 48.304C33.9812 48.4533 34.4452 48.608 35.0746 48.768C35.7146 48.928 36.2426 49.0933 36.6586 49.264C37.0746 49.4347 37.4319 49.7013 37.7306 50.064C38.0399 50.416 38.1999 50.8853 38.2106 51.472C38.2106 51.984 38.0666 52.4427 37.7786 52.848C37.5012 53.2533 37.0959 53.5733 36.5626 53.808C36.0399 54.032 35.4266 54.144 34.7226 54.144Z" fill="#CFD8DC"/>
<path d="M7.67069 42.832V50.672C7.67069 51.76 7.35602 52.608 6.72669 53.216C6.09735 53.8133 5.25469 54.112 4.19869 54.112C3.13202 54.112 2.26802 53.8027 1.60669 53.184C0.956021 52.5653 0.630688 51.7013 0.630688 50.592H2.87069C2.88135 51.072 2.99335 51.4453 3.20669 51.712C3.43069 51.9787 3.75069 52.112 4.16669 52.112C4.57202 52.112 4.88135 51.984 5.09469 51.728C5.30802 51.472 5.41469 51.12 5.41469 50.672V42.832H7.67069ZM14.2197 54.144C13.3664 54.144 12.5984 53.9573 11.9157 53.584C11.233 53.2 10.6944 52.6613 10.2997 51.968C9.91569 51.2747 9.72369 50.4747 9.72369 49.568C9.72369 48.6613 9.92102 47.8613 10.3157 47.168C10.721 46.4747 11.2704 45.9413 11.9637 45.568C12.657 45.184 13.4304 44.992 14.2837 44.992C15.137 44.992 15.9104 45.184 16.6037 45.568C17.297 45.9413 17.841 46.4747 18.2357 47.168C18.641 47.8613 18.8437 48.6613 18.8437 49.568C18.8437 50.4747 18.6357 51.2747 18.2197 51.968C17.8144 52.6613 17.2597 53.2 16.5557 53.584C15.8624 53.9573 15.0837 54.144 14.2197 54.144ZM14.2197 52.192C14.625 52.192 15.0037 52.096 15.3557 51.904C15.7184 51.7013 16.0064 51.4027 16.2197 51.008C16.433 50.6133 16.5397 50.1333 16.5397 49.568C16.5397 48.7253 16.3157 48.08 15.8677 47.632C15.4304 47.1733 14.8917 46.944 14.2517 46.944C13.6117 46.944 13.073 47.1733 12.6357 47.632C12.209 48.08 11.9957 48.7253 11.9957 49.568C11.9957 50.4107 12.2037 51.0613 12.6197 51.52C13.0464 51.968 13.5797 52.192 14.2197 52.192ZM22.7268 46.432C23.0148 46.0053 23.4095 45.6587 23.9108 45.392C24.4228 45.1253 25.0041 44.992 25.6548 44.992C26.4121 44.992 27.0948 45.1787 27.7028 45.552C28.3215 45.9253 28.8068 46.4587 29.1588 47.152C29.5215 47.8347 29.7028 48.6293 29.7028 49.536C29.7028 50.4427 29.5215 51.248 29.1588 51.952C28.8068 52.6453 28.3215 53.184 27.7028 53.568C27.0948 53.952 26.4121 54.144 25.6548 54.144C24.9935 54.144 24.4121 54.016 23.9108 53.76C23.4201 53.4933 23.0255 53.152 22.7268 52.736V54H20.4868V42.16H22.7268V46.432ZM27.4148 49.536C27.4148 49.0027 27.3028 48.544 27.0788 48.16C26.8655 47.7653 26.5775 47.4667 26.2148 47.264C25.8628 47.0613 25.4788 46.96 25.0628 46.96C24.6575 46.96 24.2735 47.0667 23.9108 47.28C23.5588 47.4827 23.2708 47.7813 23.0468 48.176C22.8335 48.5707 22.7268 49.0347 22.7268 49.568C22.7268 50.1013 22.8335 50.5653 23.0468 50.96C23.2708 51.3547 23.5588 51.6587 23.9108 51.872C24.2735 52.0747 24.6575 52.176 25.0628 52.176C25.4788 52.176 25.8628 52.0693 26.2148 51.856C26.5775 51.6427 26.8655 51.3387 27.0788 50.944C27.3028 50.5493 27.4148 50.08 27.4148 49.536ZM34.7226 54.144C33.9972 54.144 33.3466 54.016 32.7706 53.76C32.1946 53.4933 31.7359 53.136 31.3946 52.688C31.0639 52.24 30.8826 51.744 30.8506 51.2H33.1066C33.1492 51.5413 33.3146 51.824 33.6026 52.048C33.9012 52.272 34.2692 52.384 34.7066 52.384C35.1332 52.384 35.4639 52.2987 35.6986 52.128C35.9439 51.9573 36.0666 51.7387 36.0666 51.472C36.0666 51.184 35.9172 50.9707 35.6186 50.832C35.3306 50.6827 34.8666 50.5227 34.2266 50.352C33.5652 50.192 33.0212 50.0267 32.5946 49.856C32.1786 49.6853 31.8159 49.424 31.5066 49.072C31.2079 48.72 31.0586 48.2453 31.0586 47.648C31.0586 47.1573 31.1972 46.7093 31.4746 46.304C31.7626 45.8987 32.1679 45.5787 32.6906 45.344C33.2239 45.1093 33.8479 44.992 34.5626 44.992C35.6186 44.992 36.4612 45.2587 37.0906 45.792C37.7199 46.3147 38.0666 47.024 38.1306 47.92H35.9866C35.9546 47.568 35.8052 47.2907 35.5386 47.088C35.2826 46.8747 34.9359 46.768 34.4986 46.768C34.0932 46.768 33.7786 46.8427 33.5546 46.992C33.3412 47.1413 33.2346 47.3493 33.2346 47.616C33.2346 47.9147 33.3839 48.144 33.6826 48.304C33.9812 48.4533 34.4452 48.608 35.0746 48.768C35.7146 48.928 36.2426 49.0933 36.6586 49.264C37.0746 49.4347 37.4319 49.7013 37.7306 50.064C38.0399 50.416 38.1999 50.8853 38.2106 51.472C38.2106 51.984 38.0666 52.4427 37.7786 52.848C37.5012 53.2533 37.0959 53.5733 36.5626 53.808C36.0399 54.032 35.4266 54.144 34.7226 54.144Z" fill="#F0F7FF"/>
<g filter="url(#filter0_ii_10_808)">
<path d="M17 0C14.7909 0 13 1.79088 13 4V6C13 7.10457 12.1046 8 11 8C7.68628 8 5 10.6863 5 14V26C5 29.3137 7.68628 32 11 32H31C34.3137 32 37 29.3137 37 26V14C37 10.6863 34.3137 8 31 8C29.8954 8 29 7.10457 29 6V4C29 1.79088 27.2091 0 25 0H17ZM25 6C25 7.10457 24.1046 8 23 8H19C17.8954 8 17 7.10457 17 6C17 4.89543 17.8954 4 19 4H23C24.1046 4 25 4.89543 25 6Z" fill="#CFD8DC"/>
<path d="M17 0C14.7909 0 13 1.79088 13 4V6C13 7.10457 12.1046 8 11 8C7.68628 8 5 10.6863 5 14V26C5 29.3137 7.68628 32 11 32H31C34.3137 32 37 29.3137 37 26V14C37 10.6863 34.3137 8 31 8C29.8954 8 29 7.10457 29 6V4C29 1.79088 27.2091 0 25 0H17ZM25 6C25 7.10457 24.1046 8 23 8H19C17.8954 8 17 7.10457 17 6C17 4.89543 17.8954 4 19 4H23C24.1046 4 25 4.89543 25 6Z" fill="#F0F7FF"/>
</g>
<defs>
<filter id="filter0_ii_10_808" x="1" y="-4" width="40" height="40" filterUnits="userSpaceOnUse" color-interpolation-filters="sRGB">
<feFlood flood-opacity="0" result="BackgroundImageFix"/>
<feBlend mode="normal" in="SourceGraphic" in2="BackgroundImageFix" result="shape"/>
<feColorMatrix in="SourceAlpha" type="matrix" values="0 0 0 0 0 0 0 0 0 0 0 0 0 0 0 0 0 0 127 0" result="hardAlpha"/>
<feOffset dx="4" dy="4"/>
<feGaussianBlur stdDeviation="6"/>
<feComposite in2="hardAlpha" operator="arithmetic" k2="-1" k3="1"/>
<feColorMatrix type="matrix" values="0 0 0 0 0.733333 0 0 0 0 0.764706 0 0 0 0 0.807843 0 0 0 0.6 0"/>
<feBlend mode="normal" in2="shape" result="effect1_innerShadow_10_808"/>
<feColorMatrix in="SourceAlpha" type="matrix" values="0 0 0 0 0 0 0 0 0 0 0 0 0 0 0 0 0 0 127 0" result="hardAlpha"/>
<feOffset dx="-4" dy="-4"/>
<feGaussianBlur stdDeviation="6"/>
<feComposite in2="hardAlpha" operator="arithmetic" k2="-1" k3="1"/>
<feColorMatrix type="matrix" values="0 0 0 0 0.992157 0 0 0 0 1 0 0 0 0 1 0 0 0 0.8 0"/>
<feBlend mode="normal" in2="effect1_innerShadow_10_808" result="effect2_innerShadow_10_808"/>
</filter>
</defs>
</svg>
