<svg width="63" height="60" viewBox="0 0 63 60" fill="none" xmlns="http://www.w3.org/2000/svg">
<path d="M7.08275 54L4.61875 49.648H3.56275V54H1.32275V42.832H5.51475C6.37875 42.832 7.11475 42.9867 7.72275 43.296C8.33075 43.5947 8.78408 44.0053 9.08275 44.528C9.39208 45.04 9.54675 45.616 9.54675 46.256C9.54675 46.992 9.33342 47.6587 8.90675 48.256C8.48008 48.8427 7.84542 49.248 7.00275 49.472L9.67475 54H7.08275ZM3.56275 47.968H5.43475C6.04275 47.968 6.49608 47.824 6.79475 47.536C7.09342 47.2373 7.24275 46.8267 7.24275 46.304C7.24275 45.792 7.09342 45.3973 6.79475 45.12C6.49608 44.832 6.04275 44.688 5.43475 44.688H3.56275V47.968ZM19.8128 49.376C19.8128 49.696 19.7914 49.984 19.7488 50.24H13.2688C13.3221 50.88 13.5461 51.3813 13.9408 51.744C14.3354 52.1067 14.8208 52.288 15.3968 52.288C16.2288 52.288 16.8208 51.9307 17.1728 51.216H19.5888C19.3328 52.0693 18.8421 52.7733 18.1168 53.328C17.3914 53.872 16.5008 54.144 15.4448 54.144C14.5914 54.144 13.8234 53.9573 13.1408 53.584C12.4688 53.2 11.9408 52.6613 11.5568 51.968C11.1834 51.2747 10.9967 50.4747 10.9967 49.568C10.9967 48.6507 11.1834 47.8453 11.5568 47.152C11.9301 46.4587 12.4528 45.9253 13.1248 45.552C13.7968 45.1787 14.5701 44.992 15.4448 44.992C16.2874 44.992 17.0394 45.1733 17.7008 45.536C18.3728 45.8987 18.8901 46.416 19.2528 47.088C19.6261 47.7493 19.8128 48.512 19.8128 49.376ZM17.4928 48.736C17.4821 48.16 17.2741 47.7013 16.8688 47.36C16.4634 47.008 15.9674 46.832 15.3808 46.832C14.8261 46.832 14.3568 47.0027 13.9728 47.344C13.5994 47.6747 13.3701 48.1387 13.2848 48.736H17.4928ZM23.6878 46.416C23.9758 46.0107 24.3704 45.6747 24.8718 45.408C25.3838 45.1307 25.9651 44.992 26.6158 44.992C27.3731 44.992 28.0558 45.1787 28.6638 45.552C29.2824 45.9253 29.7678 46.4587 30.1198 47.152C30.4824 47.8347 30.6638 48.6293 30.6638 49.536C30.6638 50.4427 30.4824 51.248 30.1198 51.952C29.7678 52.6453 29.2824 53.184 28.6638 53.568C28.0558 53.952 27.3731 54.144 26.6158 54.144C25.9651 54.144 25.3891 54.0107 24.8878 53.744C24.3971 53.4773 23.9971 53.1413 23.6878 52.736V58.224H21.4478V45.136H23.6878V46.416ZM28.3758 49.536C28.3758 49.0027 28.2638 48.544 28.0398 48.16C27.8264 47.7653 27.5384 47.4667 27.1758 47.264C26.8238 47.0613 26.4398 46.96 26.0238 46.96C25.6184 46.96 25.2344 47.0667 24.8718 47.28C24.5198 47.4827 24.2318 47.7813 24.0078 48.176C23.7944 48.5707 23.6878 49.0347 23.6878 49.568C23.6878 50.1013 23.7944 50.5653 24.0078 50.96C24.2318 51.3547 24.5198 51.6587 24.8718 51.872C25.2344 52.0747 25.6184 52.176 26.0238 52.176C26.4398 52.176 26.8238 52.0693 27.1758 51.856C27.5384 51.6427 27.8264 51.3387 28.0398 50.944C28.2638 50.5493 28.3758 50.08 28.3758 49.536ZM36.2275 54.144C35.3742 54.144 34.6062 53.9573 33.9235 53.584C33.2408 53.2 32.7022 52.6613 32.3075 51.968C31.9235 51.2747 31.7315 50.4747 31.7315 49.568C31.7315 48.6613 31.9288 47.8613 32.3235 47.168C32.7288 46.4747 33.2782 45.9413 33.9715 45.568C34.6648 45.184 35.4382 44.992 36.2915 44.992C37.1448 44.992 37.9182 45.184 38.6115 45.568C39.3048 45.9413 39.8488 46.4747 40.2435 47.168C40.6488 47.8613 40.8515 48.6613 40.8515 49.568C40.8515 50.4747 40.6435 51.2747 40.2275 51.968C39.8222 52.6613 39.2675 53.2 38.5635 53.584C37.8702 53.9573 37.0915 54.144 36.2275 54.144ZM36.2275 52.192C36.6328 52.192 37.0115 52.096 37.3635 51.904C37.7262 51.7013 38.0142 51.4027 38.2275 51.008C38.4408 50.6133 38.5475 50.1333 38.5475 49.568C38.5475 48.7253 38.3235 48.08 37.8755 47.632C37.4382 47.1733 36.8995 46.944 36.2595 46.944C35.6195 46.944 35.0808 47.1733 34.6435 47.632C34.2168 48.08 34.0035 48.7253 34.0035 49.568C34.0035 50.4107 34.2115 51.0613 34.6275 51.52C35.0542 51.968 35.5875 52.192 36.2275 52.192ZM44.7346 46.512C45.0226 46.0427 45.396 45.6747 45.8546 45.408C46.324 45.1413 46.8573 45.008 47.4546 45.008V47.36H46.8626C46.1586 47.36 45.6253 47.5253 45.2626 47.856C44.9106 48.1867 44.7346 48.7627 44.7346 49.584V54H42.4946V45.136H44.7346V46.512ZM51.5714 46.976V51.264C51.5714 51.5627 51.6407 51.7813 51.7794 51.92C51.9287 52.048 52.174 52.112 52.5154 52.112H53.5554V54H52.1474C50.2594 54 49.3154 53.0827 49.3154 51.248V46.976H48.2594V45.136H49.3154V42.944H51.5714V45.136H53.5554V46.976H51.5714ZM58.5585 54.144C57.8332 54.144 57.1825 54.016 56.6065 53.76C56.0305 53.4933 55.5718 53.136 55.2305 52.688C54.8998 52.24 54.7185 51.744 54.6865 51.2H56.9425C56.9852 51.5413 57.1505 51.824 57.4385 52.048C57.7372 52.272 58.1052 52.384 58.5425 52.384C58.9692 52.384 59.2998 52.2987 59.5345 52.128C59.7798 51.9573 59.9025 51.7387 59.9025 51.472C59.9025 51.184 59.7532 50.9707 59.4545 50.832C59.1665 50.6827 58.7025 50.5227 58.0625 50.352C57.4012 50.192 56.8572 50.0267 56.4305 49.856C56.0145 49.6853 55.6518 49.424 55.3425 49.072C55.0438 48.72 54.8945 48.2453 54.8945 47.648C54.8945 47.1573 55.0332 46.7093 55.3105 46.304C55.5985 45.8987 56.0038 45.5787 56.5265 45.344C57.0598 45.1093 57.6838 44.992 58.3985 44.992C59.4545 44.992 60.2972 45.2587 60.9265 45.792C61.5558 46.3147 61.9025 47.024 61.9665 47.92H59.8225C59.7905 47.568 59.6412 47.2907 59.3745 47.088C59.1185 46.8747 58.7718 46.768 58.3345 46.768C57.9292 46.768 57.6145 46.8427 57.3905 46.992C57.1772 47.1413 57.0705 47.3493 57.0705 47.616C57.0705 47.9147 57.2198 48.144 57.5185 48.304C57.8172 48.4533 58.2812 48.608 58.9105 48.768C59.5505 48.928 60.0785 49.0933 60.4945 49.264C60.9105 49.4347 61.2678 49.7013 61.5665 50.064C61.8758 50.416 62.0358 50.8853 62.0465 51.472C62.0465 51.984 61.9025 52.4427 61.6145 52.848C61.3372 53.2533 60.9318 53.5733 60.3985 53.808C59.8758 54.032 59.2625 54.144 58.5585 54.144Z" fill="#CFD8DC"/>
<path d="M7.08275 54L4.61875 49.648H3.56275V54H1.32275V42.832H5.51475C6.37875 42.832 7.11475 42.9867 7.72275 43.296C8.33075 43.5947 8.78408 44.0053 9.08275 44.528C9.39208 45.04 9.54675 45.616 9.54675 46.256C9.54675 46.992 9.33342 47.6587 8.90675 48.256C8.48008 48.8427 7.84542 49.248 7.00275 49.472L9.67475 54H7.08275ZM3.56275 47.968H5.43475C6.04275 47.968 6.49608 47.824 6.79475 47.536C7.09342 47.2373 7.24275 46.8267 7.24275 46.304C7.24275 45.792 7.09342 45.3973 6.79475 45.12C6.49608 44.832 6.04275 44.688 5.43475 44.688H3.56275V47.968ZM19.8128 49.376C19.8128 49.696 19.7914 49.984 19.7488 50.24H13.2688C13.3221 50.88 13.5461 51.3813 13.9408 51.744C14.3354 52.1067 14.8208 52.288 15.3968 52.288C16.2288 52.288 16.8208 51.9307 17.1728 51.216H19.5888C19.3328 52.0693 18.8421 52.7733 18.1168 53.328C17.3914 53.872 16.5008 54.144 15.4448 54.144C14.5914 54.144 13.8234 53.9573 13.1408 53.584C12.4688 53.2 11.9408 52.6613 11.5568 51.968C11.1834 51.2747 10.9967 50.4747 10.9967 49.568C10.9967 48.6507 11.1834 47.8453 11.5568 47.152C11.9301 46.4587 12.4528 45.9253 13.1248 45.552C13.7968 45.1787 14.5701 44.992 15.4448 44.992C16.2874 44.992 17.0394 45.1733 17.7008 45.536C18.3728 45.8987 18.8901 46.416 19.2528 47.088C19.6261 47.7493 19.8128 48.512 19.8128 49.376ZM17.4928 48.736C17.4821 48.16 17.2741 47.7013 16.8688 47.36C16.4634 47.008 15.9674 46.832 15.3808 46.832C14.8261 46.832 14.3568 47.0027 13.9728 47.344C13.5994 47.6747 13.3701 48.1387 13.2848 48.736H17.4928ZM23.6878 46.416C23.9758 46.0107 24.3704 45.6747 24.8718 45.408C25.3838 45.1307 25.9651 44.992 26.6158 44.992C27.3731 44.992 28.0558 45.1787 28.6638 45.552C29.2824 45.9253 29.7678 46.4587 30.1198 47.152C30.4824 47.8347 30.6638 48.6293 30.6638 49.536C30.6638 50.4427 30.4824 51.248 30.1198 51.952C29.7678 52.6453 29.2824 53.184 28.6638 53.568C28.0558 53.952 27.3731 54.144 26.6158 54.144C25.9651 54.144 25.3891 54.0107 24.8878 53.744C24.3971 53.4773 23.9971 53.1413 23.6878 52.736V58.224H21.4478V45.136H23.6878V46.416ZM28.3758 49.536C28.3758 49.0027 28.2638 48.544 28.0398 48.16C27.8264 47.7653 27.5384 47.4667 27.1758 47.264C26.8238 47.0613 26.4398 46.96 26.0238 46.96C25.6184 46.96 25.2344 47.0667 24.8718 47.28C24.5198 47.4827 24.2318 47.7813 24.0078 48.176C23.7944 48.5707 23.6878 49.0347 23.6878 49.568C23.6878 50.1013 23.7944 50.5653 24.0078 50.96C24.2318 51.3547 24.5198 51.6587 24.8718 51.872C25.2344 52.0747 25.6184 52.176 26.0238 52.176C26.4398 52.176 26.8238 52.0693 27.1758 51.856C27.5384 51.6427 27.8264 51.3387 28.0398 50.944C28.2638 50.5493 28.3758 50.08 28.3758 49.536ZM36.2275 54.144C35.3742 54.144 34.6062 53.9573 33.9235 53.584C33.2408 53.2 32.7022 52.6613 32.3075 51.968C31.9235 51.2747 31.7315 50.4747 31.7315 49.568C31.7315 48.6613 31.9288 47.8613 32.3235 47.168C32.7288 46.4747 33.2782 45.9413 33.9715 45.568C34.6648 45.184 35.4382 44.992 36.2915 44.992C37.1448 44.992 37.9182 45.184 38.6115 45.568C39.3048 45.9413 39.8488 46.4747 40.2435 47.168C40.6488 47.8613 40.8515 48.6613 40.8515 49.568C40.8515 50.4747 40.6435 51.2747 40.2275 51.968C39.8222 52.6613 39.2675 53.2 38.5635 53.584C37.8702 53.9573 37.0915 54.144 36.2275 54.144ZM36.2275 52.192C36.6328 52.192 37.0115 52.096 37.3635 51.904C37.7262 51.7013 38.0142 51.4027 38.2275 51.008C38.4408 50.6133 38.5475 50.1333 38.5475 49.568C38.5475 48.7253 38.3235 48.08 37.8755 47.632C37.4382 47.1733 36.8995 46.944 36.2595 46.944C35.6195 46.944 35.0808 47.1733 34.6435 47.632C34.2168 48.08 34.0035 48.7253 34.0035 49.568C34.0035 50.4107 34.2115 51.0613 34.6275 51.52C35.0542 51.968 35.5875 52.192 36.2275 52.192ZM44.7346 46.512C45.0226 46.0427 45.396 45.6747 45.8546 45.408C46.324 45.1413 46.8573 45.008 47.4546 45.008V47.36H46.8626C46.1586 47.36 45.6253 47.5253 45.2626 47.856C44.9106 48.1867 44.7346 48.7627 44.7346 49.584V54H42.4946V45.136H44.7346V46.512ZM51.5714 46.976V51.264C51.5714 51.5627 51.6407 51.7813 51.7794 51.92C51.9287 52.048 52.174 52.112 52.5154 52.112H53.5554V54H52.1474C50.2594 54 49.3154 53.0827 49.3154 51.248V46.976H48.2594V45.136H49.3154V42.944H51.5714V45.136H53.5554V46.976H51.5714ZM58.5585 54.144C57.8332 54.144 57.1825 54.016 56.6065 53.76C56.0305 53.4933 55.5718 53.136 55.2305 52.688C54.8998 52.24 54.7185 51.744 54.6865 51.2H56.9425C56.9852 51.5413 57.1505 51.824 57.4385 52.048C57.7372 52.272 58.1052 52.384 58.5425 52.384C58.9692 52.384 59.2998 52.2987 59.5345 52.128C59.7798 51.9573 59.9025 51.7387 59.9025 51.472C59.9025 51.184 59.7532 50.9707 59.4545 50.832C59.1665 50.6827 58.7025 50.5227 58.0625 50.352C57.4012 50.192 56.8572 50.0267 56.4305 49.856C56.0145 49.6853 55.6518 49.424 55.3425 49.072C55.0438 48.72 54.8945 48.2453 54.8945 47.648C54.8945 47.1573 55.0332 46.7093 55.3105 46.304C55.5985 45.8987 56.0038 45.5787 56.5265 45.344C57.0598 45.1093 57.6838 44.992 58.3985 44.992C59.4545 44.992 60.2972 45.2587 60.9265 45.792C61.5558 46.3147 61.9025 47.024 61.9665 47.92H59.8225C59.7905 47.568 59.6412 47.2907 59.3745 47.088C59.1185 46.8747 58.7718 46.768 58.3345 46.768C57.9292 46.768 57.6145 46.8427 57.3905 46.992C57.1772 47.1413 57.0705 47.3493 57.0705 47.616C57.0705 47.9147 57.2198 48.144 57.5185 48.304C57.8172 48.4533 58.2812 48.608 58.9105 48.768C59.5505 48.928 60.0785 49.0933 60.4945 49.264C60.9105 49.4347 61.2678 49.7013 61.5665 50.064C61.8758 50.416 62.0358 50.8853 62.0465 51.472C62.0465 51.984 61.9025 52.4427 61.6145 52.848C61.3372 53.2533 60.9318 53.5733 60.3985 53.808C59.8758 54.032 59.2625 54.144 58.5585 54.144Z" fill="#F0F7FF"/>
<g filter="url(#filter0_ii_10_812)">
<path d="M36.5771 3.42857H47.8571C50.7606 3.42857 53.1583 5.59398 53.5233 8.39791L53.5593 8.76714L53.5714 9.14286V26.2857C53.5714 29.3154 51.2136 31.7944 48.2329 31.9878L47.8571 32H22.7143C19.6846 32 17.2056 29.6422 17.0122 26.6614L17 26.2857V10.2857H28.5901L28.9402 10.2678C29.6349 10.1965 30.2916 9.91459 30.8218 9.46005L31.0759 9.21857L36.5771 3.42857ZM28.8095 0C29.4277 0 30.032 0.16709 30.5597 0.480371L30.8667 0.685714L33.88 2.94629L29.4187 7.64429L29.2798 7.76849C29.1319 7.8804 28.9589 7.95467 28.7759 7.98481L28.5901 8H17V5.71429C17 2.68461 19.3578 0.205626 22.3386 0.0121547L22.7143 0H28.8095Z" fill="#CFD8DC"/>
<path d="M36.5771 3.42857H47.8571C50.7606 3.42857 53.1583 5.59398 53.5233 8.39791L53.5593 8.76714L53.5714 9.14286V26.2857C53.5714 29.3154 51.2136 31.7944 48.2329 31.9878L47.8571 32H22.7143C19.6846 32 17.2056 29.6422 17.0122 26.6614L17 26.2857V10.2857H28.5901L28.9402 10.2678C29.6349 10.1965 30.2916 9.91459 30.8218 9.46005L31.0759 9.21857L36.5771 3.42857ZM28.8095 0C29.4277 0 30.032 0.16709 30.5597 0.480371L30.8667 0.685714L33.88 2.94629L29.4187 7.64429L29.2798 7.76849C29.1319 7.8804 28.9589 7.95467 28.7759 7.98481L28.5901 8H17V5.71429C17 2.68461 19.3578 0.205626 22.3386 0.0121547L22.7143 0H28.8095Z" fill="#F0F7FF"/>
</g>
<defs>
<filter id="filter0_ii_10_812" x="13" y="-4" width="44.5715" height="40" filterUnits="userSpaceOnUse" color-interpolation-filters="sRGB">
<feFlood flood-opacity="0" result="BackgroundImageFix"/>
<feBlend mode="normal" in="SourceGraphic" in2="BackgroundImageFix" result="shape"/>
<feColorMatrix in="SourceAlpha" type="matrix" values="0 0 0 0 0 0 0 0 0 0 0 0 0 0 0 0 0 0 127 0" result="hardAlpha"/>
<feOffset dx="4" dy="4"/>
<feGaussianBlur stdDeviation="6"/>
<feComposite in2="hardAlpha" operator="arithmetic" k2="-1" k3="1"/>
<feColorMatrix type="matrix" values="0 0 0 0 0.733333 0 0 0 0 0.764706 0 0 0 0 0.807843 0 0 0 0.6 0"/>
<feBlend mode="normal" in2="shape" result="effect1_innerShadow_10_812"/>
<feColorMatrix in="SourceAlpha" type="matrix" values="0 0 0 0 0 0 0 0 0 0 0 0 0 0 0 0 0 0 127 0" result="hardAlpha"/>
<feOffset dx="-4" dy="-4"/>
<feGaussianBlur stdDeviation="6"/>
<feComposite in2="hardAlpha" operator="arithmetic" k2="-1" k3="1"/>
<feColorMatrix type="matrix" values="0 0 0 0 0.992157 0 0 0 0 1 0 0 0 0 1 0 0 0 0.8 0"/>
<feBlend mode="normal" in2="effect1_innerShadow_10_812" result="effect2_innerShadow_10_812"/>
</filter>
</defs>
</svg>
